<svg xmlns="http://www.w3.org/2000/svg" viewBox="0 0 331 143.47"><defs><style>.cls-1{fill:#959799;}.cls-2{fill:#d2d3d4;}.cls-3{fill:#8ed8f8;}.cls-4{fill:#231f20;}.cls-5{fill:#f4e634;}.cls-6{fill:#feffff;}.cls-7{fill:#fefeff;}.cls-8{fill:#00a451;}</style></defs><g id="Réteg_2" data-name="Réteg 2"><g id="Réteg_1" data-name="Réteg 1"><circle class="cls-1" cx="66.09" cy="77.39" r="66.08"/><path class="cls-2" d="M132.17,66.09a66.08,66.08,0,1,1-5-25.13.13.13,0,0,1,0,.08A63.9,63.9,0,0,1,131,53.42,66.14,66.14,0,0,1,132.17,66.09Z"/><path class="cls-1" d="M132.17,66.09a65.81,65.81,0,0,1-10.24,35.35c-1.26-10.69-4.16-36.4-4.16-46.3,0-12.36,9-14.11,9.44-14.18h0l0,.08L131,53.42A66.14,66.14,0,0,1,132.17,66.09Z"/><path class="cls-1" d="M0,66.09a65.81,65.81,0,0,0,10.24,35.35C11.5,90.75,14.4,65,14.4,55.14,14.4,42.78,5.37,41,5,41H5l0,.08L1.22,53.42A66.14,66.14,0,0,0,0,66.09Z"/><path class="cls-3" d="M110.81,106.7c-.56-.14-13.94-3.4-21.27-10.73-1.44-1.43-2.61-2.84-3.75-4.2-4.11-4.93-7.08-8.49-19.7-8.49s-15.6,3.56-19.71,8.49c-1.14,1.36-2.31,2.77-3.75,4.2-7.32,7.33-20.7,10.59-21.27,10.73L20,107l-1.27-.59c-1.95-.92-8.33-5.58-8.33-27.08A75.31,75.31,0,0,1,16.71,49a24.11,24.11,0,0,0,1.66-4.85c0-5.18,0-12.25,5.84-15.68C38,19.91,56.37,19,63.63,19c1.23,0,2.08,0,2.46,0s1.23,0,2.46,0c7.25,0,25.6.92,39.41,9.49,5.84,3.43,5.84,10.5,5.84,15.68A24.32,24.32,0,0,0,115.47,49a75.35,75.35,0,0,1,6.3,30.34c0,21.5-6.38,26.16-8.33,27.08l-1.27.59Z"/><path class="cls-4" d="M68.55,23c6.45,0,24.29.8,37.35,8.93,3.9,2.25,3.9,7.56,3.9,12.25s8,14.56,8,35.19-6,23.46-6,23.46-12.76-3-19.37-9.67S84.16,79.28,66.09,79.28,46.42,86.53,39.81,93.14s-19.38,9.67-19.38,9.67-6-2.83-6-23.46,8-30.51,8-35.19,0-10,3.9-12.25C39.33,23.78,57.17,23,63.63,23c1.56,0,2.46.05,2.46.05S67,23,68.55,23m0-8c-1.15,0-2,0-2.46,0s-1.32,0-2.46,0C56,15,36.82,16,22.14,25.06c-7.63,4.5-7.77,13.33-7.77,18.79-.18.7-.84,2.33-1.37,3.66A79,79,0,0,0,6.4,79.35c0,22.37,6.66,28.84,10.63,30.7l2.54,1.19,2.72-.65c1.53-.37,15.19-3.81,23.17-11.79,1.57-1.56,2.85-3.11,4-4.47,3.79-4.55,5.88-7,16.64-7s12.84,2.5,16.63,7c1.14,1.36,2.43,2.91,4,4.47,8,8,21.64,11.42,23.17,11.79l2.72.65,2.54-1.19c4-1.86,10.63-8.33,10.63-30.7a79,79,0,0,0-6.6-31.84c-.53-1.33-1.19-3-1.37-3.66,0-5.46-.14-14.29-7.77-18.79C95.35,16,76.14,15,68.55,15Z"/><path class="cls-4" d="M110.84,102.77S95.07,100.08,91,93,80.35,79.29,66.09,79.29,45.34,85.87,41.22,93s-19.89,9.79-19.89,9.79S13,117.79,33.51,129s32.58,8.92,32.58,8.92,12,2.28,32.57-8.92S110.84,102.77,110.84,102.77Z"/><path class="cls-5" d="M15.8,101.19c4.51.16,22.65,6.07,22.65,22.47S22,141.17,15.57,137.46,3.7,126.24,5.28,111.85C6.36,102,14.23,101.13,15.8,101.19Z"/><path class="cls-4" d="M10.8,101.19c4.51.16,22.65,6.07,22.65,22.47S17,141.17,10.57,137.46-1.3,126.24.28,111.85C1.36,102,9.23,101.13,10.8,101.19Z"/><path class="cls-5" d="M118.69,101.19c-4.5.16-22.64,6.07-22.64,22.47s16.45,17.51,22.87,13.8,11.88-11.22,10.3-25.61C128.14,102,120.27,101.13,118.69,101.19Z"/><path class="cls-4" d="M123.69,101.19c-4.5.16-22.64,6.07-22.64,22.47s16.45,17.51,22.87,13.8,11.88-11.22,10.3-25.61C133.14,102,125.27,101.13,123.69,101.19Z"/><path class="cls-6" d="M36.9,58.22c-.42,0-1.07,0-1.22-.19-2.81-4.23,1.62-20,6.16-21.88a48.3,48.3,0,0,1,15.45-3.21c3.86-.24,5.19,1.56,5.17,5.35-.05,12-5.32,18.08-16.6,18.84C43,58.63,39.76,56.87,36.9,58.22Z"/><path class="cls-7" d="M32.5,83.29c-3.9-.76-6.53-2.85-5.5-7.4,1.14-5,3.85-9.43,6.23-13.94a4.18,4.18,0,0,1,4.25-2.22c5.12.17,10.19,0,15-2,1.87-.8,3.4-.55,3.18,2.13C55,68.17,42.58,81.4,34,82.9,33.57,83,33.17,83.11,32.5,83.29Z"/><path class="cls-8" d="M148.65,36.67h-10.6L150,.49h13.43l11.94,36.18h-10.6l-7.91-26.21h-.29Zm-2-14.27H166.6v7.35H146.67Z"/><path class="cls-8" d="M176.33,36.67V.49H192A15.9,15.9,0,0,1,199,2a11,11,0,0,1,4.7,4.22,12.46,12.46,0,0,1,1.68,6.61,11.81,11.81,0,0,1-1.72,6.55,10.75,10.75,0,0,1-4.82,4,17.85,17.85,0,0,1-7.24,1.36h-9.32V17.1h7.34a9.16,9.16,0,0,0,3-.43,3.77,3.77,0,0,0,1.89-1.39,4.31,4.31,0,0,0,.66-2.49,4.48,4.48,0,0,0-.66-2.54,3.85,3.85,0,0,0-1.89-1.44,8.13,8.13,0,0,0-3-.47h-3.46V36.67Zm21.2-16.6,9,16.6H195.9l-8.83-16.6Z"/><path class="cls-8" d="M207.05,36.67V.49h15.61a14.9,14.9,0,0,1,7.05,1.59,11.51,11.51,0,0,1,4.7,4.47,13.13,13.13,0,0,1,1.68,6.73A12.8,12.8,0,0,1,234.37,20a11.4,11.4,0,0,1-4.83,4.38,16,16,0,0,1-7.23,1.54H213V18.3h7.34a6.54,6.54,0,0,0,3-.61A4.43,4.43,0,0,0,225.18,16a5.18,5.18,0,0,0,.66-2.67,5.12,5.12,0,0,0-.66-2.66,4.32,4.32,0,0,0-1.89-1.69,6.68,6.68,0,0,0-3-.59h-3.46V36.67Z"/><path class="cls-8" d="M258.61.49h9.82V23.67a12.68,12.68,0,0,1-2,7.14A12.84,12.84,0,0,1,261,35.46a21.34,21.34,0,0,1-16.36,0,12.38,12.38,0,0,1-7.42-11.79V.49H247V22.82a6,6,0,0,0,.74,3,5.27,5.27,0,0,0,2.06,2.05,6.43,6.43,0,0,0,6,0,5.31,5.31,0,0,0,2.05-2.05,6,6,0,0,0,.74-3Z"/><path class="cls-8" d="M290.11,11.8A3.8,3.8,0,0,0,288.79,9a5.42,5.42,0,0,0-3.56-1,7.16,7.16,0,0,0-2.48.37,3,3,0,0,0-1.42,1,2.42,2.42,0,0,0-.48,1.41,2.24,2.24,0,0,0,.24,1.17,2.68,2.68,0,0,0,.88.94,6.41,6.41,0,0,0,1.53.75,15.06,15.06,0,0,0,2.23.6l3,.64a22,22,0,0,1,5.14,1.68A12.28,12.28,0,0,1,297.33,19a8.94,8.94,0,0,1,2,3.16A11.12,11.12,0,0,1,300,26a10.25,10.25,0,0,1-1.78,6,10.9,10.9,0,0,1-5.05,3.76,21.44,21.44,0,0,1-7.87,1.29,22.18,22.18,0,0,1-8.22-1.39,11.48,11.48,0,0,1-5.44-4.3A13.28,13.28,0,0,1,269.69,24H279a5.47,5.47,0,0,0,.83,2.79,4.57,4.57,0,0,0,2.09,1.72,8.27,8.27,0,0,0,3.22.58,7.74,7.74,0,0,0,2.64-.39,3.54,3.54,0,0,0,1.6-1.08A2.5,2.5,0,0,0,290,26a2.29,2.29,0,0,0-.54-1.46,4.68,4.68,0,0,0-1.7-1.13,19,19,0,0,0-3.2-.94l-3.61-.78a16.41,16.41,0,0,1-7.56-3.49,8.4,8.4,0,0,1-2.75-6.68,10,10,0,0,1,1.84-6,12.28,12.28,0,0,1,5.18-4A18.73,18.73,0,0,1,285.23,0a18,18,0,0,1,7.58,1.47,11.39,11.39,0,0,1,4.94,4.12,11.24,11.24,0,0,1,1.76,6.21Z"/><path class="cls-8" d="M301.4,36.67V31.23L318.5,8.41h-17V.49H331V5.94L313.9,28.76h17v7.91Z"/><path class="cls-8" d="M150.19,143.47a11.81,11.81,0,0,1-8.6-3.53,11.49,11.49,0,0,1-3.54-8.61,11.25,11.25,0,0,1,3.54-8.45,12.06,12.06,0,0,1,17,0,11.41,11.41,0,0,1,3.71,8.45,11.74,11.74,0,0,1-1.75,6.14,13.1,13.1,0,0,1-4.45,4.37A11.35,11.35,0,0,1,150.19,143.47Z"/><path class="cls-8" d="M168.89,142.08V53.29H193V88H224.9V53.29H249v88.79H224.9V107.4H193v34.68Z"/><path class="cls-8" d="M306.9,53.29H331v56.88a30.34,30.34,0,0,1-18.29,28.94,52.25,52.25,0,0,1-40.15,0,31.2,31.2,0,0,1-13.42-11.4,31.56,31.56,0,0,1-4.79-17.54V53.29h24.11v54.8a14.62,14.62,0,0,0,1.82,7.35,13,13,0,0,0,5.05,5,15.79,15.79,0,0,0,14.72,0,13.12,13.12,0,0,0,5-5,14.73,14.73,0,0,0,1.82-7.35Z"/></g></g></svg>