<svg xmlns="http://www.w3.org/2000/svg" viewBox="0 0 135 171.84"><defs><style>.cls-1{fill:#231f20;}.cls-2{fill:none;}.cls-2,.cls-4{stroke:#231f20;stroke-miterlimit:10;}.cls-3,.cls-4{fill:#fff;}.cls-5{fill:#e6e7e8;}</style></defs><g id="Réteg_2" data-name="Réteg 2"><g id="Réteg_1" data-name="Réteg 1"><path class="cls-1" d="M132.43,72.25q.24,2.79.24,5.64a66.08,66.08,0,1,1-132.16,0c0-1.88.08-3.75.24-5.59Z"/><path class="cls-2" d="M132.67,66.59a66.08,66.08,0,1,1-5-25.13.13.13,0,0,1,0,.08,63.9,63.9,0,0,1,3.71,12.38A66.14,66.14,0,0,1,132.67,66.59Z"/><path class="cls-1" d="M132.67,66.59a65.81,65.81,0,0,1-10.24,35.35c-1.26-10.69-4.16-36.4-4.16-46.3,0-12.36,9-14.11,9.44-14.18h0l0,.08,3.71,12.38A66.14,66.14,0,0,1,132.67,66.59Z"/><path class="cls-1" d="M.5,66.59a65.81,65.81,0,0,0,10.24,35.35C12,91.25,14.9,65.54,14.9,55.64c0-12.36-9-14.11-9.44-14.18h0l0,.08L1.72,53.92A66.14,66.14,0,0,0,.5,66.59Z"/><path class="cls-3" d="M111.31,107.2c-.56-.14-13.94-3.4-21.27-10.73-1.44-1.43-2.61-2.84-3.75-4.2-4.11-4.93-7.08-8.49-19.7-8.49S51,87.34,46.88,92.27c-1.14,1.36-2.31,2.77-3.75,4.2-7.32,7.33-20.7,10.59-21.27,10.73l-1.36.32-1.27-.59c-1.95-.92-8.33-5.58-8.33-27.08a75.31,75.31,0,0,1,6.31-30.34,24.11,24.11,0,0,0,1.66-4.85c0-5.18,0-12.26,5.84-15.68,13.81-8.57,32.16-9.5,39.41-9.5,1.24,0,2.09,0,2.47.05s1.23-.05,2.46-.05c7.25,0,25.6.93,39.41,9.5,5.84,3.42,5.84,10.5,5.84,15.68A24.32,24.32,0,0,0,116,49.51a75.35,75.35,0,0,1,6.3,30.34c0,21.5-6.38,26.16-8.33,27.08l-1.27.59Z"/><path class="cls-1" d="M69.05,23.48c6.45,0,24.29.8,37.35,8.93,3.9,2.25,3.9,7.56,3.9,12.25s8,14.56,8,35.19-6,23.46-6,23.46-12.76-3-19.37-9.67S84.66,79.78,66.59,79.78,46.92,87,40.31,93.64s-19.38,9.67-19.38,9.67-6-2.83-6-23.46,8-30.51,8-35.19,0-10,3.9-12.25c13.06-8.13,30.9-8.93,37.36-8.93,1.56,0,2.46.05,2.46.05s.89-.05,2.46-.05m0-8c-1.15,0-2,0-2.46,0s-1.32,0-2.46,0c-7.6,0-26.81,1-41.49,10.07-7.63,4.5-7.77,13.33-7.77,18.79-.18.7-.84,2.33-1.37,3.66A79,79,0,0,0,6.9,79.85c0,22.37,6.66,28.84,10.63,30.7l2.54,1.19,2.72-.65C24.32,110.72,38,107.28,46,99.3c1.57-1.56,2.85-3.11,4-4.47,3.79-4.55,5.88-7,16.64-7s12.84,2.5,16.63,7c1.14,1.36,2.43,2.91,4,4.47,8,8,21.64,11.42,23.17,11.79l2.72.65,2.54-1.19c4-1.86,10.63-8.33,10.63-30.7A79,79,0,0,0,119.67,48c-.53-1.33-1.19-3-1.37-3.66,0-5.46-.14-14.29-7.77-18.79C95.85,16.47,76.64,15.49,69.05,15.49Z"/><path class="cls-1" d="M111.34,103.27s-15.77-2.69-19.89-9.79S80.85,79.79,66.59,79.79,45.84,86.37,41.72,93.48s-19.89,9.79-19.89,9.79-8.36,15,12.18,26.22,32.58,8.92,32.58,8.92,12,2.28,32.57-8.92S111.34,103.27,111.34,103.27Z"/><path class="cls-4" d="M16.3,101.69c4.51.16,22.65,6.07,22.65,22.47S22.5,141.67,16.07,138,4.2,126.74,5.78,112.35C6.86,102.47,14.73,101.63,16.3,101.69Z"/><path class="cls-1" d="M11.3,101.69c4.51.16,22.65,6.07,22.65,22.47S17.5,141.67,11.07,138-.8,126.74.78,112.35C1.86,102.47,9.73,101.63,11.3,101.69Z"/><path class="cls-4" d="M119.19,101.69c-4.5.16-22.64,6.07-22.64,22.47S113,141.67,119.42,138s11.88-11.22,10.3-25.61C128.64,102.47,120.77,101.63,119.19,101.69Z"/><path class="cls-1" d="M124.19,101.69c-4.5.16-22.64,6.07-22.64,22.47S118,141.67,124.42,138s11.88-11.22,10.3-25.61C133.64,102.47,125.77,101.63,124.19,101.69Z"/><path class="cls-5" d="M37.4,58.72c-.42,0-1.07,0-1.22-.19-2.81-4.23,1.62-20,6.16-21.88a48.3,48.3,0,0,1,15.45-3.21C61.65,33.2,63,35,63,38.79c-.05,12-5.32,18.08-16.6,18.84C43.51,59.13,40.26,57.37,37.4,58.72Z"/><path class="cls-5" d="M33,83.79c-3.9-.76-6.53-2.85-5.5-7.4,1.14-5,3.85-9.43,6.23-13.94A4.18,4.18,0,0,1,38,60.23c5.12.17,10.19,0,15-2,1.87-.8,3.4-.55,3.18,2.13C55.51,68.67,43.08,81.9,34.49,83.4,34.07,83.47,33.67,83.61,33,83.79Z"/><path class="cls-1" d="M6.23,171.57H1.05l5.83-17.66h6.55l5.83,17.66H14.09l-3.86-12.8h-.14Zm-1-7H15v3.59H5.26Z"/><path class="cls-1" d="M19.74,171.57V153.91h7.62a7.88,7.88,0,0,1,3.44.71,5.42,5.42,0,0,1,2.3,2.06,6.15,6.15,0,0,1,.82,3.23,5.72,5.72,0,0,1-.85,3.2,5.16,5.16,0,0,1-2.35,2,8.62,8.62,0,0,1-3.53.67H22.64V162h3.58a4.4,4.4,0,0,0,1.45-.21,1.79,1.79,0,0,0,.92-.68,2,2,0,0,0,.32-1.21,2.14,2.14,0,0,0-.32-1.24,1.9,1.9,0,0,0-.92-.71,4.12,4.12,0,0,0-1.45-.23H24.53v13.84Zm10.35-8.11,4.41,8.11H29.29L25,163.46Z"/><path class="cls-1" d="M34.74,171.57V153.91h7.62a7.24,7.24,0,0,1,3.44.77,5.66,5.66,0,0,1,2.29,2.18,6.4,6.4,0,0,1,.82,3.29,6.2,6.2,0,0,1-.84,3.28,5.54,5.54,0,0,1-2.35,2.14,7.87,7.87,0,0,1-3.53.75H37.63V162.6h3.59a3.16,3.16,0,0,0,1.44-.3,2.19,2.19,0,0,0,.93-.85,2.58,2.58,0,0,0,.32-1.3,2.53,2.53,0,0,0-.32-1.3,2.21,2.21,0,0,0-.93-.83,3.3,3.3,0,0,0-1.44-.29H39.53v13.84Z"/><path class="cls-1" d="M59.91,153.91H64.7v11.31A6,6,0,0,1,61.06,171a10.47,10.47,0,0,1-8,0,6,6,0,0,1-3.62-5.76V153.91h4.79v10.9a3,3,0,0,0,.36,1.46,2.56,2.56,0,0,0,1,1,3.14,3.14,0,0,0,2.92,0,2.62,2.62,0,0,0,1-1,3,3,0,0,0,.36-1.46Z"/><path class="cls-1" d="M75.28,159.43a1.85,1.85,0,0,0-.64-1.35,2.66,2.66,0,0,0-1.74-.48,3.75,3.75,0,0,0-1.21.17,1.52,1.52,0,0,0-.69.48,1.12,1.12,0,0,0-.23.69,1,1,0,0,0,.11.58,1.22,1.22,0,0,0,.43.45,2.91,2.91,0,0,0,.75.37,7.06,7.06,0,0,0,1.09.29l1.44.31a10.87,10.87,0,0,1,2.51.82,5.91,5.91,0,0,1,1.71,1.2,4.35,4.35,0,0,1,1,1.54,5.3,5.3,0,0,1,.32,1.86,4.93,4.93,0,0,1-.87,2.95,5.23,5.23,0,0,1-2.46,1.83,10.51,10.51,0,0,1-3.84.63,10.75,10.75,0,0,1-4-.68,5.51,5.51,0,0,1-2.65-2.1,6.42,6.42,0,0,1-1-3.63h4.55a2.72,2.72,0,0,0,.4,1.36,2.32,2.32,0,0,0,1,.84,3.93,3.93,0,0,0,1.57.28,3.64,3.64,0,0,0,1.28-.19,1.79,1.79,0,0,0,.79-.52,1.28,1.28,0,0,0,.28-.77,1.14,1.14,0,0,0-.27-.71,2.14,2.14,0,0,0-.83-.56,10.49,10.49,0,0,0-1.56-.46l-1.76-.38a8,8,0,0,1-3.69-1.7,4.13,4.13,0,0,1-1.35-3.26,4.9,4.9,0,0,1,.91-2.95,5.91,5.91,0,0,1,2.52-2,9.23,9.23,0,0,1,3.71-.71,8.75,8.75,0,0,1,3.7.72,5.59,5.59,0,0,1,2.41,2,5.42,5.42,0,0,1,.86,3Z"/><path class="cls-1" d="M80.8,171.57v-2.66l8.34-11.14H80.83v-3.86H95.25v2.65L86.9,167.7h8.31v3.87Z"/><path class="cls-1" d="M99,171.84a2.36,2.36,0,0,1-1.71-.7,2.29,2.29,0,0,1-.7-1.71,2.22,2.22,0,0,1,.7-1.68,2.36,2.36,0,0,1,1.71-.7,2.32,2.32,0,0,1,1.68.7,2.26,2.26,0,0,1,.74,1.68,2.34,2.34,0,0,1-.35,1.22,2.71,2.71,0,0,1-.88.87A2.36,2.36,0,0,1,99,171.84Z"/><path class="cls-1" d="M102.75,171.57V153.91h4.8v6.89h6.34v-6.89h4.8v17.66h-4.8v-6.9h-6.34v6.9Z"/><path class="cls-1" d="M130.2,153.91H135v11.31a6.18,6.18,0,0,1-1,3.49,6.33,6.33,0,0,1-2.67,2.27,10.5,10.5,0,0,1-8,0,6,6,0,0,1-3.62-5.76V153.91h4.79v10.9a3,3,0,0,0,.37,1.46,2.53,2.53,0,0,0,1,1,3.16,3.16,0,0,0,2.93,0,2.53,2.53,0,0,0,1-1,3,3,0,0,0,.36-1.46Z"/></g></g></svg>