<svg xmlns="http://www.w3.org/2000/svg" viewBox="0 0 76.45 41.83"><defs><style>.cls-1{fill:#fff;}</style></defs><g id="Réteg_2" data-name="Réteg 2"><g id="Réteg_1" data-name="Réteg 1"><path class="cls-1" d="M75.85,16.56,38.64.09a1,1,0,0,0-.81,0L.6,16.56a1,1,0,0,0-.6.91V40.83a1,1,0,0,0,1,1H20a1,1,0,0,0,1-1V21.91H55.42V40.83a1,1,0,0,0,1,1h19a1,1,0,0,0,1-1V17.47A1,1,0,0,0,75.85,16.56ZM56.42,19.91H20a1,1,0,0,0-1,1V39.83H2V18.12l36.23-16,36.22,16V39.83h-17V20.91A1,1,0,0,0,56.42,19.91Z"/><path class="cls-1" d="M53.06,39.83H39.31a1,1,0,0,0,0,2H53.06a1,1,0,0,0,0-2Z"/><path class="cls-1" d="M53.06,36.51H39.31a1,1,0,0,0,0,2H53.06a1,1,0,0,0,0-2Z"/><path class="cls-1" d="M53.06,33.19H39.31a1,1,0,0,0,0,2H53.06a1,1,0,0,0,0-2Z"/><path class="cls-1" d="M37.14,39.83H23.39a1,1,0,0,0,0,2H37.14a1,1,0,0,0,0-2Z"/><path class="cls-1" d="M37.14,36.51H23.39a1,1,0,0,0,0,2H37.14a1,1,0,0,0,0-2Z"/><path class="cls-1" d="M37.14,33.19H23.39a1,1,0,0,0,0,2H37.14a1,1,0,0,0,0-2Z"/><path class="cls-1" d="M53.06,29.86H39.31a1,1,0,0,0,0,2H53.06a1,1,0,0,0,0-2Z"/></g></g></svg>