<svg xmlns="http://www.w3.org/2000/svg" viewBox="0 0 62.39 55.16"><defs><style>.cls-1{fill:none;stroke:#231f20;stroke-miterlimit:10;}</style></defs><g id="Réteg_2" data-name="Réteg 2"><g id="Réteg_1" data-name="Réteg 1"><line class="cls-1" x1="14.78" y1="2.43" x2="2.48" y2="2.43"/><line class="cls-1" x1="2.48" y1="13.05" x2="2.48" y2="6.14"/><line class="cls-1" x1="14.78" y1="13.05" x2="14.78" y2="6.14"/><path class="cls-1" d="M42.73,21.83A9.24,9.24,0,0,1,44.92,17a7.74,7.74,0,0,1,4.41-2.08"/><path class="cls-1" d="M30.34,21.83A21.94,21.94,0,0,1,36,8.59a20.36,20.36,0,0,1,13.38-6"/><polyline class="cls-1" points="53.03 2.43 61.89 2.43 61.89 14.73 53.03 14.73"/><path class="cls-1" d="M42.57,25.54V32.2c0,7.94-4.77,19.58-17.75,20.53"/><path class="cls-1" d="M30.27,25.54V32.2a13.16,13.16,0,0,1-1.1,4.65,5.56,5.56,0,0,1-4.35,3.5"/><path class="cls-1" d="M2.48,16.76V32.2c0,7.92,5,19.51,18.63,20.53"/><path class="cls-1" d="M14.78,16.76V32.2a11.9,11.9,0,0,0,1.29,4.73,6.27,6.27,0,0,0,5,3.42"/><rect class="cls-1" x="21.11" y="38.41" width="3.71" height="16.26" rx="1.85"/><rect class="cls-1" x="49.32" y="0.5" width="3.71" height="16.26" rx="1.85"/><rect class="cls-1" x="6.77" y="-3.84" width="3.71" height="16.26" rx="1.85" transform="translate(12.92 -4.34) rotate(90)"/><rect class="cls-1" x="6.77" y="6.77" width="3.71" height="16.26" rx="1.85" transform="translate(23.53 6.27) rotate(90)"/><rect class="cls-1" x="34.48" y="15.56" width="3.71" height="16.26" rx="1.85" transform="translate(60.02 -12.65) rotate(90)"/></g></g></svg>