<svg xmlns="http://www.w3.org/2000/svg" viewBox="0 0 63.39 56.16"><defs><style>.cls-1{fill:#fff;}</style></defs><g id="Réteg_2" data-name="Réteg 2"><g id="Réteg_1" data-name="Réteg 1"><path class="cls-1" d="M54.37,1.93a2.84,2.84,0,0,0-5.44.21A21.14,21.14,0,0,0,35.73,8.4a23,23,0,0,0-5.8,13,2.84,2.84,0,0,0-.16,5.51v5.77a12.08,12.08,0,0,1-1,4.24,4.7,4.7,0,0,1-2.69,2.69,2.82,2.82,0,0,0-2.61-1.71,2.87,2.87,0,0,0-2.62,1.74A5.13,5.13,0,0,1,17.45,37a10,10,0,0,1-1-2.91,9.7,9.7,0,0,1-.17-1.34V18.11a2.85,2.85,0,0,0,0-5.42V7.5A2.85,2.85,0,0,0,15.78,2L3,1.93h-.5V2A2.85,2.85,0,0,0,2,7.5v5.19a2.84,2.84,0,0,0,0,5.42V32.7c0,7.86,5,20,18.76,21.44a2.84,2.84,0,0,0,5.44,0C39.3,52.72,44.07,40.59,44.07,32.7V26.87A2.86,2.86,0,0,0,46,24.18a2.82,2.82,0,0,0-1.57-2.53,7.73,7.73,0,0,1,1.75-3.44,6.22,6.22,0,0,1,3-1.59,2.84,2.84,0,0,0,5.29-.39h9V1.93Zm.16,12.3V3.93h6.86v10.3Zm-2-11.38V15.4a.85.85,0,0,1-.85.85.86.86,0,0,1-.86-.85V2.85A.86.86,0,0,1,51.68,2,.85.85,0,0,1,52.53,2.85ZM31.77,32.7V27h10.3V32.7c0,7.07-4.21,17.95-15.75,19.42V41.63a6.65,6.65,0,0,0,4.26-3.86A14.15,14.15,0,0,0,31.77,32.7ZM30.56,25a.86.86,0,0,1-.85-.86.85.85,0,0,1,.85-.85H43.11a.85.85,0,0,1,.85.85.86.86,0,0,1-.85.86ZM44.7,16.81a9.53,9.53,0,0,0-2.28,4.52H32A20.77,20.77,0,0,1,37.18,9.78,19.1,19.1,0,0,1,48.82,4.16V14.63a8.26,8.26,0,0,0-4.11,2.18ZM23.46,39.91a.86.86,0,0,1,.86.85V53.31a.86.86,0,0,1-.86.85.85.85,0,0,1-.85-.85V40.76A.85.85,0,0,1,23.46,39.91ZM20.61,52.12C8.42,50.62,4,39.75,4,32.7V18.25h10.3V32.74a10.3,10.3,0,0,0,.21,1.67,11.85,11.85,0,0,0,1.2,3.49,7.16,7.16,0,0,0,4.92,3.76ZM14.28,7.64v4.91H4V7.64Zm1.12,8.61H2.85a.85.85,0,1,1,0-1.7H15.4a.85.85,0,0,1,0,1.7Zm0-10.61H2.85A.85.85,0,0,1,2,4.79a.86.86,0,0,1,.85-.86H15.4a.86.86,0,0,1,.85.86A.85.85,0,0,1,15.4,5.64Z"/></g></g></svg>