<svg xmlns="http://www.w3.org/2000/svg" xmlns:xlink="http://www.w3.org/1999/xlink" viewBox="0 0 77.07 77.86"><defs><style>.cls-1{fill:url(#Névtelen_színátmenet_7);}.cls-2{fill:#c1e8d4;}.cls-10,.cls-12,.cls-13,.cls-14,.cls-15,.cls-16,.cls-3,.cls-4,.cls-5,.cls-6,.cls-7,.cls-8,.cls-9{stroke:#231f20;stroke-width:2px;}.cls-12,.cls-13,.cls-14,.cls-15,.cls-16,.cls-3{stroke-miterlimit:10;}.cls-3{fill:url(#Névtelen_színátmenet_17);}.cls-10,.cls-4,.cls-5,.cls-6,.cls-7,.cls-8,.cls-9{stroke-linecap:round;stroke-linejoin:round;}.cls-4{fill:url(#Névtelen_színátmenet_17-2);}.cls-5{fill:url(#Névtelen_színátmenet_17-3);}.cls-6{fill:url(#Névtelen_színátmenet_17-4);}.cls-7{fill:url(#Névtelen_színátmenet_17-5);}.cls-8{fill:url(#Névtelen_színátmenet_17-6);}.cls-9{fill:url(#Névtelen_színátmenet_17-7);}.cls-10{fill:none;}.cls-11{fill:#202020;}.cls-12{fill:url(#Névtelen_színátmenet_17-8);}.cls-13{fill:url(#Névtelen_színátmenet_17-9);}.cls-14{fill:url(#Névtelen_színátmenet_17-10);}.cls-15{fill:url(#Névtelen_színátmenet_17-11);}.cls-16{fill:url(#Névtelen_színátmenet_17-12);}</style><linearGradient id="Névtelen_színátmenet_7" x1="19.13" y1="22.37" x2="76" y2="22.37" gradientUnits="userSpaceOnUse"><stop offset="0" stop-color="#06a452" stop-opacity="0.25"/><stop offset="0.09" stop-color="#06a452" stop-opacity="0.2"/><stop offset="0.38" stop-color="#06a452" stop-opacity="0.09"/><stop offset="0.68" stop-color="#06a452" stop-opacity="0.02"/><stop offset="1" stop-color="#06a452" stop-opacity="0"/></linearGradient><linearGradient id="Névtelen_színátmenet_17" x1="1" y1="38.37" x2="18.48" y2="38.37" gradientUnits="userSpaceOnUse"><stop offset="0" stop-color="#e6e7e8" stop-opacity="0.25"/><stop offset="0.45" stop-color="#d8d9db" stop-opacity="0.25"/><stop offset="0.84" stop-color="#aeafb2" stop-opacity="0.25"/><stop offset="1" stop-color="#939598" stop-opacity="0.25"/></linearGradient><linearGradient id="Névtelen_színátmenet_17-2" x1="1" y1="5.69" x2="10.41" y2="5.69" xlink:href="#Névtelen_színátmenet_17"/><linearGradient id="Névtelen_színátmenet_17-3" x1="1" y1="16.39" x2="18.48" y2="16.39" xlink:href="#Névtelen_színátmenet_17"/><linearGradient id="Névtelen_színátmenet_17-4" x1="1" y1="31.47" x2="18.48" y2="31.47" xlink:href="#Névtelen_színátmenet_17"/><linearGradient id="Névtelen_színátmenet_17-5" x1="1" y1="45.31" x2="18.48" y2="45.31" xlink:href="#Névtelen_színátmenet_17"/><linearGradient id="Névtelen_színátmenet_17-6" x1="1" y1="59.16" x2="18.48" y2="59.16" xlink:href="#Névtelen_színátmenet_17"/><linearGradient id="Névtelen_színátmenet_17-7" x1="7.58" y1="69.73" x2="18.48" y2="69.73" xlink:href="#Névtelen_színátmenet_17"/><linearGradient id="Névtelen_színátmenet_17-8" x1="54.25" y1="29.5" x2="54.25" y2="29.5" xlink:href="#Névtelen_színátmenet_17"/><linearGradient id="Névtelen_színátmenet_17-9" x1="45.35" y1="27.2" x2="63.14" y2="27.2" xlink:href="#Névtelen_színátmenet_17"/><linearGradient id="Névtelen_színátmenet_17-10" x1="66.45" y1="35.67" x2="68.8" y2="35.67" gradientTransform="translate(-3.34 7.58) rotate(-7.01)" xlink:href="#Névtelen_színátmenet_17"/><linearGradient id="Névtelen_színátmenet_17-11" x1="50.34" y1="53.44" x2="58.16" y2="53.44" xlink:href="#Névtelen_színátmenet_17"/><linearGradient id="Névtelen_színátmenet_17-12" x1="52.81" y1="41.84" x2="52.81" y2="41.84" gradientTransform="translate(52.24 -19.24) rotate(45)" xlink:href="#Névtelen_színátmenet_17"/></defs><g id="Réteg_2" data-name="Réteg 2"><g id="Réteg_1" data-name="Réteg 1"><path class="cls-1" d="M76,23,23.77,39.57q-.37-.09-.75-.15a4.17,4.17,0,0,0,.12-1,4.36,4.36,0,0,0-2.43-3.91,2,2,0,0,0,.55-1.42A2.13,2.13,0,0,0,19.13,31V5.17Z"/><path class="cls-2" d="M39.17,64.35a11.41,11.41,0,0,1-11.4,11.4H19.13V31a2.13,2.13,0,0,1,2.13,2.13,2,2,0,0,1-.55,1.42,4.36,4.36,0,0,1,2.43,3.91,4.17,4.17,0,0,1-.12,1,8.21,8.21,0,0,1,6.4,11.18c1.78,0,4,.7,4,3.21a3.68,3.68,0,0,1-.05.58A11.41,11.41,0,0,1,39.17,64.35Z"/><polyline class="cls-3" points="1 75.75 18.48 75.75 18.48 1 1 1"/><line class="cls-4" x1="10.41" y1="1" x2="1" y2="10.38"/><line class="cls-5" x1="18.48" y1="7.67" x2="1" y2="25.11"/><line class="cls-6" x1="18.48" y1="22.75" x2="1" y2="40.19"/><line class="cls-7" x1="18.48" y1="36.59" x2="1" y2="54.04"/><line class="cls-8" x1="18.48" y1="50.44" x2="1" y2="67.88"/><line class="cls-9" x1="7.58" y1="75.17" x2="18.48" y2="64.28"/><path class="cls-10" d="M20.71,34.5a4.36,4.36,0,0,1,2.43,3.91,4.17,4.17,0,0,1-.12,1"/><path class="cls-10" d="M28,53a8.22,8.22,0,0,0,2-5.41,8.21,8.21,0,0,0-6.24-8q-.37-.09-.75-.15a8.15,8.15,0,0,0-1.22-.09"/><path class="cls-10" d="M29.42,50.6c1.78,0,4,.7,4,3.21a3.68,3.68,0,0,1-.05.58A3.21,3.21,0,0,1,30.17,57"/><path class="cls-10" d="M33.33,54.39a11.4,11.4,0,0,1-5.56,21.36"/><path class="cls-10" d="M28,53h-.21"/><path class="cls-10" d="M19.13,31a2.13,2.13,0,0,1,2.13,2.13,2,2,0,0,1-.55,1.42,2.08,2.08,0,0,1-1.58.71"/><path class="cls-11" d="M36,44.31a22.84,22.84,0,0,1,3.54-5,21.91,21.91,0,0,1,4.88-3.74,20.54,20.54,0,0,1,11.92-2.43,19.2,19.2,0,0,1,6,1.53,20.26,20.26,0,0,1,9.27,7.86A19.39,19.39,0,0,1,74,48.13a20.4,20.4,0,0,1-.46,12.15A20.63,20.63,0,0,1,66.23,70a21.66,21.66,0,0,1-5.47,2.82,22.28,22.28,0,0,1-6.06,1.06l-1.54,0c-.52,0-1-.11-1.54-.16a6.59,6.59,0,0,1-.76-.1l-.24,0h-.09l-.33-.08.42-2a18.7,18.7,0,0,1-6,1.39,22.15,22.15,0,0,0,4.72,5l.42-2,.37.08h.09l.27.06c.28.06.57.07.85.11.58.06,1.15.15,1.72.17l1.72,0a24.73,24.73,0,0,0,6.77-1.18,24.18,24.18,0,0,0,6.1-3.15,22.92,22.92,0,0,0,8.14-10.87,22.66,22.66,0,0,0,.52-13.56A22.79,22.79,0,0,0,69,36.05a22,22,0,0,0-5.84-3.6,21.52,21.52,0,0,0-6.65-1.71,22.92,22.92,0,0,0-13.3,2.72,24.27,24.27,0,0,0-5.45,4.17,25.55,25.55,0,0,0-4,5.62Z"/><line class="cls-12" x1="54.25" y1="31.8" x2="54.25" y2="27.2"/><line class="cls-13" x1="45.35" y1="27.2" x2="63.14" y2="27.2"/><line class="cls-14" x1="67.1" y1="36.05" x2="69.15" y2="33.43"/><circle class="cls-15" cx="54.25" cy="53.44" r="3.91"/><line class="cls-16" x1="54.25" y1="53.44" x2="65.76" y2="41.94"/></g></g></svg>