<svg xmlns="http://www.w3.org/2000/svg" xmlns:xlink="http://www.w3.org/1999/xlink" viewBox="0 0 153.84 156.41"><defs><style>.cls-1{fill:url(#Névtelen_színátmenet_7);}.cls-2{fill:#c1e8d4;}.cls-10,.cls-12,.cls-13,.cls-14,.cls-15,.cls-16,.cls-3,.cls-4,.cls-5,.cls-6,.cls-7,.cls-8,.cls-9{stroke:#231f20;}.cls-12,.cls-13,.cls-14,.cls-15,.cls-16,.cls-3{stroke-miterlimit:10;}.cls-10,.cls-12,.cls-13,.cls-14,.cls-15,.cls-16,.cls-3{stroke-width:5px;}.cls-3{fill:url(#Névtelen_színátmenet_17);}.cls-10,.cls-4,.cls-5,.cls-6,.cls-7,.cls-8,.cls-9{stroke-linecap:round;stroke-linejoin:round;}.cls-4,.cls-5,.cls-6,.cls-7,.cls-8,.cls-9{stroke-width:3px;}.cls-4{fill:url(#Névtelen_színátmenet_17-2);}.cls-5{fill:url(#Névtelen_színátmenet_17-3);}.cls-6{fill:url(#Névtelen_színátmenet_17-4);}.cls-7{fill:url(#Névtelen_színátmenet_17-5);}.cls-8{fill:url(#Névtelen_színátmenet_17-6);}.cls-9{fill:url(#Névtelen_színátmenet_17-7);}.cls-10{fill:none;}.cls-11{fill:#202020;}.cls-12{fill:url(#Névtelen_színátmenet_17-8);}.cls-13{fill:url(#Névtelen_színátmenet_17-9);}.cls-14{fill:url(#Névtelen_színátmenet_17-10);}.cls-15{fill:url(#Névtelen_színátmenet_17-11);}.cls-16{fill:url(#Névtelen_színátmenet_17-12);}</style><linearGradient id="Névtelen_színátmenet_7" x1="37.81" y1="45.3" x2="151.69" y2="45.3" gradientUnits="userSpaceOnUse"><stop offset="0" stop-color="#06a452" stop-opacity="0.25"/><stop offset="0.09" stop-color="#06a452" stop-opacity="0.2"/><stop offset="0.38" stop-color="#06a452" stop-opacity="0.09"/><stop offset="0.68" stop-color="#06a452" stop-opacity="0.02"/><stop offset="1" stop-color="#06a452" stop-opacity="0"/></linearGradient><linearGradient id="Névtelen_színátmenet_17" x1="1.5" y1="77.34" x2="36.5" y2="77.34" gradientUnits="userSpaceOnUse"><stop offset="0" stop-color="#e6e7e8" stop-opacity="0.25"/><stop offset="0.45" stop-color="#d8d9db" stop-opacity="0.25"/><stop offset="0.84" stop-color="#aeafb2" stop-opacity="0.25"/><stop offset="1" stop-color="#939598" stop-opacity="0.25"/></linearGradient><linearGradient id="Névtelen_színátmenet_17-2" x1="1.5" y1="11.89" x2="20.35" y2="11.89" xlink:href="#Névtelen_színátmenet_17"/><linearGradient id="Névtelen_színátmenet_17-3" x1="1.5" y1="33.32" x2="36.5" y2="33.32" xlink:href="#Névtelen_színátmenet_17"/><linearGradient id="Névtelen_színátmenet_17-4" x1="1.5" y1="63.52" x2="36.5" y2="63.52" xlink:href="#Névtelen_színátmenet_17"/><linearGradient id="Névtelen_színátmenet_17-5" x1="1.5" y1="91.24" x2="36.5" y2="91.24" xlink:href="#Névtelen_színátmenet_17"/><linearGradient id="Névtelen_színátmenet_17-6" x1="1.5" y1="118.97" x2="36.5" y2="118.97" xlink:href="#Névtelen_színátmenet_17"/><linearGradient id="Névtelen_színátmenet_17-7" x1="14.67" y1="140.13" x2="36.5" y2="140.13" xlink:href="#Névtelen_színátmenet_17"/><linearGradient id="Névtelen_színátmenet_17-8" x1="108.14" y1="59.57" x2="108.14" y2="59.57" xlink:href="#Névtelen_színátmenet_17"/><linearGradient id="Névtelen_színátmenet_17-9" x1="90.32" y1="54.96" x2="125.93" y2="54.96" xlink:href="#Névtelen_színátmenet_17"/><linearGradient id="Névtelen_színátmenet_17-10" x1="133.57" y1="70.07" x2="138.29" y2="70.07" gradientTransform="translate(-7.53 17.11) rotate(-7.01)" xlink:href="#Névtelen_színátmenet_17"/><linearGradient id="Névtelen_színátmenet_17-11" x1="100.3" y1="107.52" x2="115.98" y2="107.52" xlink:href="#Névtelen_színátmenet_17"/><linearGradient id="Névtelen_színátmenet_17-12" x1="123.77" y1="98.75" x2="123.77" y2="98.75" gradientTransform="translate(101.97 -61.35) rotate(45)" xlink:href="#Névtelen_színátmenet_17"/></defs><g id="Réteg_2" data-name="Réteg 2"><g id="Réteg_1" data-name="Réteg 1"><path class="cls-1" d="M151.69,46.52,47.09,79.75a14.74,14.74,0,0,0-1.5-.3,8.48,8.48,0,0,0,.24-2A8.71,8.71,0,0,0,41,69.6a4.18,4.18,0,0,0,1.1-2.85,4.27,4.27,0,0,0-4.26-4.27V10.86Z"/><path class="cls-2" d="M77.93,129.36A22.83,22.83,0,0,1,55.1,152.19H37.81V62.48a4.27,4.27,0,0,1,4.26,4.27A4.18,4.18,0,0,1,41,69.6a8.71,8.71,0,0,1,4.86,7.82,8.48,8.48,0,0,1-.24,2,16.45,16.45,0,0,1,14,16.26,16.25,16.25,0,0,1-1.19,6.13c3.56,0,7.93,1.4,7.93,6.43a6.34,6.34,0,0,1-.11,1.16A22.8,22.8,0,0,1,77.93,129.36Z"/><polyline class="cls-3" points="1.5 152.19 36.5 152.19 36.5 2.5 1.5 2.5"/><line class="cls-4" x1="20.35" y1="2.5" x2="1.5" y2="21.28"/><line class="cls-5" x1="36.5" y1="15.85" x2="1.5" y2="50.78"/><line class="cls-6" x1="36.5" y1="46.06" x2="1.5" y2="80.99"/><line class="cls-7" x1="36.5" y1="73.78" x2="1.5" y2="108.71"/><line class="cls-8" x1="36.5" y1="101.5" x2="1.5" y2="136.43"/><line class="cls-9" x1="14.67" y1="151.04" x2="36.5" y2="129.22"/><path class="cls-10" d="M41,69.6a8.71,8.71,0,0,1,4.86,7.82,8.48,8.48,0,0,1-.24,2"/><path class="cls-10" d="M55.52,106.54a16.43,16.43,0,0,0-8.43-26.79,14.74,14.74,0,0,0-1.5-.3,16.16,16.16,0,0,0-2.43-.18"/><path class="cls-10" d="M58.41,101.84c3.56,0,7.93,1.4,7.93,6.43a6.34,6.34,0,0,1-.11,1.16,6.42,6.42,0,0,1-6.32,5.28"/><path class="cls-10" d="M66.23,109.43A22.83,22.83,0,0,1,55.1,152.19"/><path class="cls-10" d="M55.52,106.54H55.1"/><path class="cls-10" d="M37.81,62.48a4.27,4.27,0,0,1,4.26,4.27A4.29,4.29,0,0,1,37.81,71"/><path class="cls-11" d="M71.48,89.24a46.35,46.35,0,0,1,7.09-10.09,44.77,44.77,0,0,1,9.78-7.48,41.18,41.18,0,0,1,23.87-4.87l1.54.17a9.79,9.79,0,0,1,1.52.23l3,.65c1,.24,2,.61,3,.91.49.16,1,.3,1.46.48l1.42.63,1.42.62a10.45,10.45,0,0,1,1.39.67l2.7,1.52c.89.51,1.69,1.17,2.55,1.74l1.26.89,1.17,1,1.17,1a10.09,10.09,0,0,1,1.12,1l2.13,2.25c.67.77,1.27,1.62,1.91,2.42a20.86,20.86,0,0,1,1.74,2.55,42.53,42.53,0,0,1,2.94,5.44l1.12,2.88a11,11,0,0,1,.48,1.47l.42,1.49a40.82,40.82,0,0,1-.94,24.33l-.24.73-.31.71-.62,1.42a20.37,20.37,0,0,1-1.35,2.78l-1.52,2.69-1.78,2.53a41.58,41.58,0,0,1-8.78,8.64,44.73,44.73,0,0,1-11,5.64A44.9,44.9,0,0,1,109,148.47l-3.09-.05c-1,0-2.05-.21-3.07-.31-.51-.07-1-.08-1.54-.19l-.48-.11-.16,0-.66-.14.83-4.12c-.89.36-1.83.76-2.78,1.07s-1.93.53-2.94.78c-.5.12-1,.26-1.54.35l-1.55.22c-1.05.14-2.13.26-3.24.37.62.87,1.28,1.76,2,2.66l1.06,1.36c.36.44.76.83,1.15,1.25.8.84,1.62,1.68,2.49,2.53s1.81,1.53,2.76,2.3l.84-4.11.74.16.18,0,.54.11c.56.12,1.14.15,1.71.22,1.15.12,2.29.3,3.44.35l3.45,0a48.78,48.78,0,0,0,13.55-2.35,49.36,49.36,0,0,0,12.23-6.29,46.22,46.22,0,0,0,9.8-9.65l2-2.82c.59-1,1.14-2,1.71-3a23.92,23.92,0,0,0,1.5-3.1l.69-1.58.35-.79.26-.83a45.46,45.46,0,0,0,1.05-27.16L151.78,94a12.05,12.05,0,0,0-.53-1.64L150,89.14a47.23,47.23,0,0,0-3.27-6.07,25.17,25.17,0,0,0-1.95-2.85c-.71-.9-1.38-1.84-2.14-2.71L140.27,75A11.82,11.82,0,0,0,139,73.82l-1.3-1.13-1.31-1.13-1.41-1c-1-.65-1.85-1.38-2.85-1.95l-3-1.69a13.79,13.79,0,0,0-1.55-.75L126,65.49l-1.59-.69c-.53-.21-1.09-.37-1.63-.55-1.1-.34-2.18-.74-3.3-1l-3.37-.73a14.12,14.12,0,0,0-1.71-.26l-1.72-.19A45.89,45.89,0,0,0,86.06,67.5a49.63,49.63,0,0,0-10.93,8.36,50.79,50.79,0,0,0-7.91,11.26Z"/><line class="cls-12" x1="108.14" y1="64.18" x2="108.14" y2="54.96"/><line class="cls-13" x1="90.32" y1="54.96" x2="125.93" y2="54.96"/><line class="cls-14" x1="133.87" y1="72.7" x2="137.98" y2="67.43"/><circle class="cls-15" cx="108.14" cy="107.52" r="7.84"/><line class="cls-16" x1="108.14" y1="107.52" x2="131.18" y2="84.48"/></g></g></svg>