<svg xmlns="http://www.w3.org/2000/svg" viewBox="0 0 135 143.97"><defs><style>.cls-1{fill:#231f20;}.cls-2{fill:none;}.cls-2,.cls-4{stroke:#231f20;stroke-miterlimit:10;}.cls-3,.cls-4{fill:#fff;}.cls-5{fill:#e6e7e8;}</style></defs><g id="Réteg_2" data-name="Réteg 2"><g id="Réteg_1" data-name="Réteg 1"><path class="cls-1" d="M132.43,72.25q.24,2.79.24,5.64a66.08,66.08,0,1,1-132.16,0c0-1.88.08-3.75.24-5.59Z"/><path class="cls-2" d="M132.67,66.59a66.08,66.08,0,1,1-5-25.13.13.13,0,0,1,0,.08,63.9,63.9,0,0,1,3.71,12.38A66.14,66.14,0,0,1,132.67,66.59Z"/><path class="cls-1" d="M132.67,66.59a65.81,65.81,0,0,1-10.24,35.35c-1.26-10.69-4.16-36.4-4.16-46.3,0-12.36,9-14.11,9.44-14.18h0l0,.08,3.71,12.38A66.14,66.14,0,0,1,132.67,66.59Z"/><path class="cls-1" d="M.5,66.59a65.81,65.81,0,0,0,10.24,35.35C12,91.25,14.9,65.54,14.9,55.64c0-12.36-9-14.11-9.44-14.18h0l0,.08L1.72,53.92A66.14,66.14,0,0,0,.5,66.59Z"/><path class="cls-3" d="M111.31,107.2c-.56-.14-13.94-3.4-21.27-10.73-1.44-1.43-2.61-2.84-3.75-4.2-4.11-4.93-7.08-8.49-19.7-8.49S51,87.34,46.88,92.27c-1.14,1.36-2.31,2.77-3.75,4.2-7.32,7.33-20.7,10.59-21.27,10.73l-1.36.32-1.27-.59c-1.95-.92-8.33-5.58-8.33-27.08a75.31,75.31,0,0,1,6.31-30.34,24.11,24.11,0,0,0,1.66-4.85c0-5.18,0-12.26,5.84-15.68,13.81-8.57,32.16-9.5,39.41-9.5,1.24,0,2.09,0,2.47.05s1.23-.05,2.46-.05c7.25,0,25.6.93,39.41,9.5,5.84,3.42,5.84,10.5,5.84,15.68A24.32,24.32,0,0,0,116,49.51a75.35,75.35,0,0,1,6.3,30.34c0,21.5-6.38,26.16-8.33,27.08l-1.27.59Z"/><path class="cls-1" d="M69.05,23.48c6.45,0,24.29.8,37.35,8.93,3.9,2.25,3.9,7.56,3.9,12.25s8,14.56,8,35.19-6,23.46-6,23.46-12.76-3-19.37-9.67S84.66,79.78,66.59,79.78,46.92,87,40.31,93.64s-19.38,9.67-19.38,9.67-6-2.83-6-23.46,8-30.51,8-35.19,0-10,3.9-12.25c13.06-8.13,30.9-8.93,37.36-8.93,1.56,0,2.46.05,2.46.05s.89-.05,2.46-.05m0-8c-1.15,0-2,0-2.46,0s-1.32,0-2.46,0c-7.6,0-26.81,1-41.49,10.07-7.63,4.5-7.77,13.33-7.77,18.79-.18.7-.84,2.33-1.37,3.66A79,79,0,0,0,6.9,79.85c0,22.37,6.66,28.84,10.63,30.7l2.54,1.19,2.72-.65C24.32,110.72,38,107.28,46,99.3c1.57-1.56,2.85-3.11,4-4.47,3.79-4.55,5.88-7,16.64-7s12.84,2.5,16.63,7c1.14,1.36,2.43,2.91,4,4.47,8,8,21.64,11.42,23.17,11.79l2.72.65,2.54-1.19c4-1.86,10.63-8.33,10.63-30.7A79,79,0,0,0,119.67,48c-.53-1.33-1.19-3-1.37-3.66,0-5.46-.14-14.29-7.77-18.79C95.85,16.47,76.64,15.49,69.05,15.49Z"/><path class="cls-1" d="M111.34,103.27s-15.77-2.69-19.89-9.79S80.85,79.79,66.59,79.79,45.84,86.37,41.72,93.48s-19.89,9.79-19.89,9.79-8.36,15,12.18,26.22,32.58,8.92,32.58,8.92,12,2.28,32.57-8.92S111.34,103.27,111.34,103.27Z"/><path class="cls-4" d="M16.3,101.69c4.51.16,22.65,6.07,22.65,22.47S22.5,141.67,16.07,138,4.2,126.74,5.78,112.35C6.86,102.47,14.73,101.63,16.3,101.69Z"/><path class="cls-1" d="M11.3,101.69c4.51.16,22.65,6.07,22.65,22.47S17.5,141.67,11.07,138-.8,126.74.78,112.35C1.86,102.47,9.73,101.63,11.3,101.69Z"/><path class="cls-4" d="M119.19,101.69c-4.5.16-22.64,6.07-22.64,22.47S113,141.67,119.42,138s11.88-11.22,10.3-25.61C128.64,102.47,120.77,101.63,119.19,101.69Z"/><path class="cls-1" d="M124.19,101.69c-4.5.16-22.64,6.07-22.64,22.47S118,141.67,124.42,138s11.88-11.22,10.3-25.61C133.64,102.47,125.77,101.63,124.19,101.69Z"/><path class="cls-5" d="M37.4,58.72c-.42,0-1.07,0-1.22-.19-2.81-4.23,1.62-20,6.16-21.88a48.3,48.3,0,0,1,15.45-3.21C61.65,33.2,63,35,63,38.79c-.05,12-5.32,18.08-16.6,18.84C43.51,59.13,40.26,57.37,37.4,58.72Z"/><path class="cls-5" d="M33,83.79c-3.9-.76-6.53-2.85-5.5-7.4,1.14-5,3.85-9.43,6.23-13.94A4.18,4.18,0,0,1,38,60.23c5.12.17,10.19,0,15-2,1.87-.8,3.4-.55,3.18,2.13C55.51,68.67,43.08,81.9,34.49,83.4,34.07,83.47,33.67,83.61,33,83.79Z"/></g></g></svg>