<svg xmlns="http://www.w3.org/2000/svg" viewBox="0 0 108.9 61.22"><defs><style>.cls-1,.cls-2{fill:none;stroke:#231f20;}.cls-1{stroke-linecap:round;stroke-linejoin:round;}.cls-2{stroke-miterlimit:10;}</style></defs><g id="Réteg_2" data-name="Réteg 2"><g id="Réteg_1" data-name="Réteg 1"><path class="cls-1" d="M89.26,18.21a3.39,3.39,0,0,1,3.39-3.39"/><path class="cls-1" d="M63.3,44.87a6.37,6.37,0,0,1,6.37-6.36"/><path class="cls-1" d="M79.74,27A3.37,3.37,0,0,1,75,27"/><path class="cls-1" d="M79.41,9.84A7.25,7.25,0,0,1,91.47,2.62"/><path class="cls-1" d="M86.05,12.52a9.15,9.15,0,0,0-12.94,0,9.15,9.15,0,0,0-2.6,7.69"/><path class="cls-1" d="M70.83,16.31a9.15,9.15,0,0,0-6.46,9.13"/><path class="cls-1" d="M59.89,29.07a9.15,9.15,0,0,0-8.55,15.39"/><path class="cls-1" d="M61.19,34.61a5.49,5.49,0,0,1-1.3-5.54,5.4,5.4,0,0,1,4.48-3.63"/><polygon class="cls-2" points="62.88 55.99 103.85 15.01 108.19 19.34 67.03 60.5 62.88 55.99"/><path class="cls-1" d="M18.44,13.48a3.51,3.51,0,0,1,0-5"/><path class="cls-1" d="M19,51.82a6.55,6.55,0,0,1,0-9.27"/><path class="cls-1" d="M17.9,26.81a3.5,3.5,0,0,1-3.49,3.5"/><path class="cls-1" d="M5.16,14.55A7.47,7.47,0,0,1,8.69.5"/><path class="cls-1" d="M12,11.66A9.44,9.44,0,0,0,3.62,25.52,9.68,9.68,0,0,0,6.23,28.6"/><path class="cls-1" d="M3.62,25.52a9.44,9.44,0,0,0,2,11.37"/><path class="cls-1" d="M5,42.79a9.44,9.44,0,0,0,5,17.45"/><path class="cls-1" d="M9.93,45.89A5.57,5.57,0,0,1,5.3,43.41,6.21,6.21,0,0,1,5,42.79a5.58,5.58,0,0,1,.62-5.9"/><polygon class="cls-2" points="26.74 60.24 26.74 0.5 33.06 0.5 33.06 60.5 26.74 60.24"/></g></g></svg>