<svg xmlns="http://www.w3.org/2000/svg" viewBox="0 0 76.45 41.83"><defs><style>.cls-1{fill:#fff;}</style></defs><g id="Réteg_2" data-name="Réteg 2"><g id="Réteg_1" data-name="Réteg 1"><path class="cls-1" d="M75.85,16.55,38.63.08a1,1,0,0,0-.8,0L.6,16.55a1,1,0,0,0-.6.92V40.83a1,1,0,0,0,1,1H20a1,1,0,0,0,1-1V35.18h3.43v3.64a1,1,0,0,0,1,1h.29v1a1,1,0,0,0,1,1h2.9a1,1,0,0,0,1-1v-1H45.8v1a1,1,0,0,0,1,1h2.9a1,1,0,0,0,1-1v-1H51a1,1,0,0,0,1-1V35.18h3.43v5.65a1,1,0,0,0,1,1h19a1,1,0,0,0,1-1V17.47A1,1,0,0,0,75.85,16.55Zm-48.08,19v-.32h2.58v.32Zm18.35,0v-.32H48.7v.32Zm-13.77,1V35.18h.43v.47a1,1,0,0,0,1,1h8.91a1,1,0,0,0,1-1v-.47h.43V36.5a1,1,0,0,0,1,1H49.7a.92.92,0,0,0,.29,0v.36H26.46v-.37a1.06,1.06,0,0,0,.31,0h4.58A1,1,0,0,0,32.35,36.5ZM21,33.18V31.84H55.42v1.34ZM55.42,28.5v1.34H21V28.5Zm0-3.34V26.5H21V25.16Zm1-5.25H20a1,1,0,0,0-1,1V39.83H2V18.12l36.23-16,36.22,16V39.83h-17V20.91A1,1,0,0,0,56.42,19.91ZM21,23.16V21.91H55.42v1.25Z"/></g></g></svg>