<svg xmlns="http://www.w3.org/2000/svg" viewBox="0 0 75.45 40.83"><defs><style>.cls-1{fill:none;stroke:#231f20;stroke-linecap:round;stroke-linejoin:round;}</style></defs><g id="Réteg_2" data-name="Réteg 2"><g id="Réteg_1" data-name="Réteg 1"><polygon class="cls-1" points="19.53 20.41 55.92 20.41 55.92 40.33 74.95 40.33 74.95 16.97 37.73 0.5 0.5 16.97 0.5 40.33 19.53 40.33 19.53 20.41"/><line class="cls-1" x1="19.53" y1="23.67" x2="55.92" y2="23.67"/><line class="cls-1" x1="19.53" y1="27.01" x2="55.92" y2="27.01"/><line class="cls-1" x1="19.53" y1="30.35" x2="55.92" y2="30.35"/><line class="cls-1" x1="19.53" y1="33.69" x2="55.92" y2="33.69"/><polyline class="cls-1" points="29.15 38.32 29.15 40.33 26.25 40.33 26.25 38.32"/><polyline class="cls-1" points="49.2 38.32 49.2 40.33 46.3 40.33 46.3 38.32"/><rect class="cls-1" x="24.96" y="33.69" width="25.53" height="4.63"/><rect class="cls-1" x="26.27" y="33.69" width="4.58" height="2.32"/><rect class="cls-1" x="44.62" y="33.69" width="4.58" height="2.32"/><rect class="cls-1" x="33.28" y="33.69" width="8.91" height="1.47"/></g></g></svg>