<svg xmlns="http://www.w3.org/2000/svg" viewBox="0 0 93.93 52.71"><defs><style>.cls-1{fill:#fff;}</style></defs><g id="Réteg_2" data-name="Réteg 2"><g id="Réteg_1" data-name="Réteg 1"><path class="cls-1" d="M91.11,2.81A9.58,9.58,0,0,0,75.4,6.12a8.59,8.59,0,0,0-2-.23,9.56,9.56,0,0,0-9.53,8.52L56.11,11a1,1,0,0,0-.81,0L18.07,27.43a1,1,0,0,0-.59.91v1.49H14.29a1,1,0,0,0-1,1v7.23H4.92V35.17a1.33,1.33,0,0,1,1.43-1.43,1,1,0,0,0,0-2,3.33,3.33,0,0,0-3.43,3.43v2.89H1.33a1,1,0,0,0-1,1V42.8a1,1,0,0,0,1,1A1,1,0,0,0,2,43.51a5.12,5.12,0,1,0,3.11-1.07A5.06,5.06,0,0,0,2,43.5a1,1,0,0,0,.29-.7V40.06h12a1,1,0,0,0,1-1V31.83h2.19v8.36a7.28,7.28,0,0,0-2.17,5.19,7.55,7.55,0,0,0,.56,2.83,7.28,7.28,0,0,0,1.61,2.36v1.14a1,1,0,0,0,1,1H92.93a1,1,0,0,0,1-1V9.6A9.54,9.54,0,0,0,91.11,2.81Zm-86,47.9a3.14,3.14,0,1,1,3.14-3.14A3.14,3.14,0,0,1,5.13,50.71Zm12.35-6.65v2.65a5.45,5.45,0,0,1-.17-1.33A5.31,5.31,0,0,1,17.48,44.06ZM91.93,50.7h-17V31.78a.28.28,0,0,0,0-.1l0-.12a.25.25,0,0,0,0-.12l0-.12a.85.85,0,0,0-.11-.16L74.56,31a.7.7,0,0,0-.19-.13l-.11-.06a1.15,1.15,0,0,0-.36-.07H37.51a1,1,0,0,0-.37.08l-.1.05a.7.7,0,0,0-.19.13l-.1.1a.94.94,0,0,0-.12.18l0,.09-.05.13c0,.06,0,.13,0,.08l0,19.09h-17V29L55.71,13,91.93,29ZM41.42,32.78H70L55.7,40.6Zm12.2,9L38.51,50V33.47Zm2.08,1.13L70,50.7H41.42Zm17.2-9.41V50L57.79,41.75ZM84.33,2a7.61,7.61,0,0,1,7.6,7.6V26.81L83,22.87V15.49a9.56,9.56,0,0,0-5.71-8.76A7.58,7.58,0,0,1,84.33,2ZM81,15.49V22L65.83,15.26a7.61,7.61,0,0,1,7.6-7.37,7.39,7.39,0,0,1,2.31.36A7.63,7.63,0,0,1,81,15.49Z"/><path class="cls-1" d="M14.29,46.81h-3a1,1,0,0,0,0,2h3a1,1,0,0,0,0-2Z"/></g></g></svg>