<svg xmlns="http://www.w3.org/2000/svg" viewBox="0 0 92.93 51.7"><defs><style>.cls-1{fill:none;stroke:#231f20;stroke-linecap:round;stroke-linejoin:round;}</style></defs><g id="Réteg_2" data-name="Réteg 2"><g id="Réteg_1" data-name="Réteg 1"><polygon class="cls-1" points="37.01 31.29 73.4 31.29 73.4 51.2 92.43 51.2 92.43 27.84 55.21 11.38 17.98 27.84 17.98 51.2 37.01 51.2 37.01 31.29"/><rect class="cls-1" x="37.01" y="31.28" width="36.39" height="19.92"/><polyline class="cls-1" points="37.01 51.2 73.4 31.29 37.01 31.29 73.4 51.2"/><polyline class="cls-1" points="64.33 51.2 73.4 51.2 75.24 51.2 81.52 51.2"/><path class="cls-1" d="M81.52,23V15A8.55,8.55,0,0,0,79,8.91a8.57,8.57,0,0,0-6.07-2.52,8.6,8.6,0,0,0-8.6,8.6v.42"/><path class="cls-1" d="M75.55,6.8A8.6,8.6,0,0,1,92.43,9.1V51.2H75.24"/><polyline class="cls-1" points="0.83 42.3 0.83 38.56 3.42 38.56 13.79 38.56"/><line class="cls-1" x1="13.79" y1="47.31" x2="10.74" y2="47.31"/><polyline class="cls-1" points="13.79 38.56 13.79 30.33 17.83 30.33"/><path class="cls-1" d="M3.42,38.56V34.67a2.38,2.38,0,0,1,2.43-2.43"/><circle class="cls-1" cx="4.63" cy="47.07" r="4.13"/><path class="cls-1" d="M17.83,40.26a6.23,6.23,0,0,0-2,4.62,6.5,6.5,0,0,0,.48,2.43,6.3,6.3,0,0,0,1.54,2.19"/></g></g></svg>