<svg xmlns="http://www.w3.org/2000/svg" viewBox="0 0 79 79"><defs><style>.cls-1{fill:#c1e8d4;}.cls-1,.cls-3{stroke:#231f20;stroke-miterlimit:10;stroke-width:2px;}.cls-2{fill:#231f20;}.cls-3{fill:none;}</style></defs><g id="Réteg_2" data-name="Réteg 2"><g id="Réteg_1" data-name="Réteg 1"><path class="cls-1" d="M26.82,57.9l-4.54-4.54a18.25,18.25,0,0,0,0-25.78L26.82,23A24.68,24.68,0,0,1,26.82,57.9Z"/><path class="cls-1" d="M34.84,64.41,30.3,59.88a28.49,28.49,0,0,0,0-40.32L34.84,15a34.9,34.9,0,0,1,0,49.39Z"/><path class="cls-1" d="M43.16,72.3l-4.54-4.54a40,40,0,0,0,0-56.52L43.16,6.7A46.45,46.45,0,0,1,43.16,72.3Z"/><path class="cls-2" d="M39.5,2A37.5,37.5,0,1,1,2,39.5,37.5,37.5,0,0,1,39.5,2m0-2A39.5,39.5,0,1,0,79,39.5,39.55,39.55,0,0,0,39.5,0Z"/><line class="cls-3" x1="66.02" y1="66.02" x2="12.98" y2="12.99"/></g></g></svg>