<svg xmlns="http://www.w3.org/2000/svg" viewBox="0 0 79 79"><defs><style>.cls-1,.cls-2{fill:#c1e8d4;}.cls-1,.cls-3,.cls-5{stroke:#231f20;stroke-width:2px;}.cls-1,.cls-5{stroke-miterlimit:10;}.cls-3,.cls-5{fill:none;}.cls-3{stroke-linecap:round;stroke-linejoin:round;}.cls-4{fill:#231f20;}</style></defs><g id="Réteg_2" data-name="Réteg 2"><g id="Réteg_1" data-name="Réteg 1"><path class="cls-1" d="M55.33,55.5a14.23,14.23,0,0,1-2-17.62,10.7,10.7,0,0,1,.69-1,6.76,6.76,0,0,1,.76-.92c.48-.58,1.2-1.22,1.89-2a18.25,18.25,0,0,0,3.19-5.19,18,18,0,0,0,1.29-6l0-2.38h1.3l-3.28-5.67-3.29,5.72h1.3v2.18a14.22,14.22,0,0,1-3.5,8.71c-.51.58-1.15,1.15-1.86,2a12.16,12.16,0,0,0-1,1.18c-.29.42-.63.8-.88,1.25A18.18,18.18,0,0,0,52.53,58.3Z"/><path class="cls-1" d="M40,61.44A14.38,14.38,0,0,1,35.9,53,14.22,14.22,0,0,1,38,43.82a10.84,10.84,0,0,1,.69-1,7.43,7.43,0,0,1,.76-.92c.48-.57,1.2-1.22,1.89-2a18.25,18.25,0,0,0,3.19-5.19,18,18,0,0,0,1.29-6l0-2.39h1.3l-3.28-5.66-3.29,5.72h1.3v2.17a14,14,0,0,1-1,4.66,14.32,14.32,0,0,1-2.49,4c-.51.59-1.15,1.16-1.86,2a10.15,10.15,0,0,0-1,1.18,14,14,0,0,0-.88,1.25,18.15,18.15,0,0,0,2.51,22.54Z"/><path class="cls-1" d="M24.59,55.5a14.23,14.23,0,0,1-2-17.62,10.7,10.7,0,0,1,.69-1,6.76,6.76,0,0,1,.76-.92c.48-.58,1.2-1.22,1.89-2a18.12,18.12,0,0,0,4.48-11.15l0-2.38h1.3l-3.29-5.67L25.2,20.49h1.3v2.18a14.3,14.3,0,0,1-1,4.65A14.17,14.17,0,0,1,23,31.37c-.5.58-1.14,1.15-1.85,2a12.16,12.16,0,0,0-1,1.18c-.29.42-.63.8-.88,1.25A18.15,18.15,0,0,0,21.79,58.3Z"/><path class="cls-2" d="M73.81,56A37.68,37.68,0,0,1,66,67.32q-.47.47-.93.9a37.53,37.53,0,0,1-50.75.4,37.74,37.74,0,0,1-9-12.3C5.18,56,5,55.58,4.87,55.2a15.81,15.81,0,0,1,9-3.28A14.77,14.77,0,0,1,23.9,56.11,10.43,10.43,0,0,1,27,55.66a9.9,9.9,0,0,1,4.32.93A15.83,15.83,0,0,1,40,54.21a17.76,17.76,0,0,1,5.56.86,17.75,17.75,0,0,1,5.55-.86,16.36,16.36,0,0,1,1.87.1,15.12,15.12,0,0,1,6.35,2c1.58-1.83,4.69-3.07,8.26-3.07a12.77,12.77,0,0,1,6.63,1.7Z"/><path class="cls-3" d="M60.71,68a4.36,4.36,0,0,1,4.38-1.1"/><path class="cls-3" d="M14.34,67.32a8.2,8.2,0,0,1,9.87,1.34"/><path class="cls-3" d="M44,67.34A4.38,4.38,0,0,1,39.58,63"/><path class="cls-3" d="M59.36,57.27a9.38,9.38,0,0,1,14.45-2.61"/><path class="cls-3" d="M63,65.81a11.85,11.85,0,0,0-17.4-10.47,12,12,0,0,0-3.87,3.29"/><path class="cls-3" d="M45.59,55.34a11.86,11.86,0,0,0-14.28,2.45"/><path class="cls-3" d="M5.35,55A11.84,11.84,0,0,1,23.9,57"/><path class="cls-3" d="M31.31,57.79A6.9,6.9,0,0,0,27,56.29,6.83,6.83,0,0,0,23.9,57a5.88,5.88,0,0,0-.77.44A7,7,0,0,0,20,63.27"/><path class="cls-4" d="M39.5,2A37.5,37.5,0,0,1,74.25,53.6c-.14.36-.29.71-.44,1.06A37.68,37.68,0,0,1,66,66q-.47.47-.93.9a37.53,37.53,0,0,1-50.75.4,37.74,37.74,0,0,1-9-12.3c-.17-.37-.33-.74-.48-1.12A37.51,37.51,0,0,1,39.5,2m0-2A39.52,39.52,0,0,0,3,54.67c.14.36.32.76.51,1.18A39.52,39.52,0,0,0,66.46,68.38c.32-.3.65-.62,1-.95a39.42,39.42,0,0,0,8.21-12c.17-.4.33-.77.47-1.15A38.94,38.94,0,0,0,79,39.5,39.55,39.55,0,0,0,39.5,0Z"/><line class="cls-5" x1="66.02" y1="66.02" x2="12.98" y2="12.99"/></g></g></svg>