<svg xmlns="http://www.w3.org/2000/svg" viewBox="0 0 63.43 76.56"><defs><style>.cls-1{fill:#fff;}</style></defs><g id="Réteg_2" data-name="Réteg 2"><g id="Réteg_1" data-name="Réteg 1"><path class="cls-1" d="M46.18,14.5V1a1,1,0,0,0-1-1H1A1,1,0,0,0,0,1V75.56a1,1,0,0,0,1,1H45.18a1,1,0,0,0,1-1V51.42a18.5,18.5,0,0,0,0-36.92ZM40.44,61.79a1,1,0,0,0-1,1V74.56H37.07V62.79a1,1,0,0,0-2,0V74.56H32.69V62.79a1,1,0,1,0-2,0V74.56H28.32V62.79a1,1,0,0,0-2,0V74.56H23.94V62.79a1,1,0,0,0-2,0V74.56H19.57V62.79a1,1,0,0,0-2,0V74.56H15.2V62.79a1,1,0,0,0-2,0V74.56H10.82V62.79a1,1,0,0,0-2,0V74.56H6.45V62.79a1,1,0,1,0-2,0V74.56H2V58.43H44.18V74.56H41.44V62.79A1,1,0,0,0,40.44,61.79Zm3.74-47.33a18.51,18.51,0,0,0,0,37v5H2V9.66H44.18Zm.83,35H44.9a17,17,0,1,1,.28,0H45ZM44.18,2V7.66H2V2Z"/><path class="cls-1" d="M46.18,46.45V44.27l2,2a1,1,0,0,0,1.42,0,1,1,0,0,0,0-1.42l-3.4-3.39V35.5l4,4v4.8a1,1,0,0,0,2,0v-2.8l1.54,1.55a1,1,0,0,0,1.41,0,1,1,0,0,0,0-1.42l-1.54-1.54h2.8a1,1,0,0,0,0-2h-4.8l-4.27-4.28h6.4l3.39,3.4a1,1,0,0,0,1.41,0,1,1,0,0,0,0-1.42l-2-2h2.18a1,1,0,0,0,0-2H56.6l2-2a1,1,0,0,0-1.41-1.42l-3.39,3.39H47.6l4.13-4.13h4.8a1,1,0,0,0,0-2h-2.8L55.5,24a1,1,0,0,0,0-1.42,1,1,0,0,0-1.41,0l-1.78,1.78v-2.8a1,1,0,0,0-2,0v4.8l-4.13,4.13V24.6l3.4-3.39a1,1,0,0,0-1.42-1.42l-2,2V19.26a1,1,0,1,0-2,0v2.51l-2-2a1,1,0,0,0-1.42,0,1,1,0,0,0-.29.71,1,1,0,0,0,.29.71l3.39,3.39v6.07l-4.45-4.45v-4.8a1,1,0,0,0-2,0v2.8L36,22.45a1,1,0,0,0-1.42,1.41l1.78,1.78h-2.8a1,1,0,0,0,0,2h4.8l4.22,4.21H36.93l-3.4-3.39a1,1,0,0,0-1.41,0,1,1,0,0,0,0,1.42l2,2H31.59a1,1,0,1,0,0,2H34.1l-2,2a1,1,0,0,0,1.41,1.42l3.4-3.4h5.84l-4.36,4.37h-4.8a1,1,0,0,0,0,2h2.8l-1.55,1.54a1,1,0,0,0,0,1.42,1,1,0,0,0,1.42,0l1.54-1.55v2.8a1,1,0,0,0,2,0v-4.8l4.36-4.36v6.17l-3.39,3.39a1,1,0,0,0,0,1.42,1,1,0,0,0,1.42,0l2-2v2.18a1,1,0,0,0,2,0Z"/></g></g></svg>