<svg xmlns="http://www.w3.org/2000/svg" xmlns:xlink="http://www.w3.org/1999/xlink" viewBox="0 0 154.69 152.5"><defs><style>.cls-1{fill:#c1e8d4;}.cls-2,.cls-3,.cls-4{stroke:#231f20;}.cls-2{stroke-miterlimit:10;fill:url(#Névtelen_színátmenet_17);}.cls-2,.cls-3{stroke-width:5px;}.cls-3,.cls-4{fill:none;stroke-linecap:round;stroke-linejoin:round;}.cls-4{stroke-width:3px;}</style><linearGradient id="Névtelen_színátmenet_17" x1="77.35" x2="77.35" y2="35" gradientUnits="userSpaceOnUse"><stop offset="0" stop-color="#e6e7e8" stop-opacity="0.25"/><stop offset="0.45" stop-color="#d8d9db" stop-opacity="0.25"/><stop offset="0.84" stop-color="#aeafb2" stop-opacity="0.25"/><stop offset="1" stop-color="#939598" stop-opacity="0.25"/></linearGradient></defs><g id="Réteg_2" data-name="Réteg 2"><g id="Réteg_1" data-name="Réteg 1"><path class="cls-1" d="M152.19,35V77.29a23.64,23.64,0,0,1-43.71,12.48,13.91,13.91,0,0,1-14.8-1.54,23.64,23.64,0,0,1-28.49,4.88,23.64,23.64,0,0,1-27.48-3.85A18.72,18.72,0,0,1,2.5,80.41V35Z"/><polyline class="cls-2" points="152.19 0 152.19 35 2.5 35 2.5 0"/><path class="cls-3" d="M35,55.8a8.75,8.75,0,0,1-12.38,0"/><path class="cls-3" d="M131.1,54.52a16.43,16.43,0,0,1-23.24,0"/><path class="cls-3" d="M68.43,57.15a8.76,8.76,0,0,1,8.76,8.76"/><circle class="cls-4" cx="13.32" cy="11.18" r="1.5"/><circle class="cls-4" cx="23.09" cy="22.06" r="1.5"/><circle class="cls-4" cx="43.99" cy="22.06" r="5.11"/><circle class="cls-4" cx="71.77" cy="11.18" r="3.12"/><circle class="cls-4" cx="108.73" cy="27.17" r="3.52"/><circle class="cls-4" cx="101.26" cy="8.02" r="1.66"/><circle class="cls-4" cx="135.08" cy="33.34" r="1.66"/><circle class="cls-4" cx="76.9" cy="32.05" r="1.66"/><circle class="cls-4" cx="125.69" cy="12.58" r="3.86"/><circle class="cls-4" cx="9.15" cy="32.05" r="2.95"/><path class="cls-3" d="M37.71,89.09A18.72,18.72,0,0,1,2.5,80.24"/><path class="cls-3" d="M30.46,72.06A23.64,23.64,0,0,0,72.9,86.39"/><path class="cls-3" d="M65.19,92.94a23.64,23.64,0,0,0,28.49-4.88"/><path class="cls-3" d="M108.48,89.6a23.64,23.64,0,0,0,43.71-12.48"/><path class="cls-3" d="M116.23,77.12A13.9,13.9,0,0,1,110,88.72a12.9,12.9,0,0,1-1.53.88,13.91,13.91,0,0,1-14.8-1.54"/><path class="cls-3" d="M131.64,150V126.39a14.66,14.66,0,0,0-.11-1.94,20.81,20.81,0,0,0-2-6.69,19.82,19.82,0,0,0-4.32-5.68l-1.38-1.15c-.47-.37-1-.65-1.48-1a18,18,0,0,0-3.09-1.57,10.58,10.58,0,0,0-1.57-.57l-1.58-.46c-1.06-.29-2.08-.4-3.12-.59a10.28,10.28,0,0,0-1.53-.15l-1.51-.08a23.43,23.43,0,0,0-3,0l-1.51.09c-.5,0-1,.15-1.55.22a20.32,20.32,0,0,0-3.14.68l-1.58.48c-.52.17-1.05.44-1.58.66a15.86,15.86,0,0,0-1.55.76l-1.51.94a18.51,18.51,0,0,0-5.07,5.1,20.25,20.25,0,0,0-2.82,6.44,19,19,0,0,0-.54,3.61V128H82.13L92,145.11,101.86,128H97.94v-2a7.07,7.07,0,0,1,.21-1.29,8.46,8.46,0,0,1,1.14-2.63,6.8,6.8,0,0,1,1.89-1.89,16.42,16.42,0,0,1,8.32-1.8l1,0a4.69,4.69,0,0,1,.94.09c.58.13,1.23.16,1.76.32l.8.25a3.08,3.08,0,0,1,.76.26,7.71,7.71,0,0,1,4.13,3.69,9.11,9.11,0,0,1,.85,2.77,2.13,2.13,0,0,1,0,.53V150Z"/><path class="cls-3" d="M66.79,150V126.39a14.66,14.66,0,0,0-.11-1.94,20.81,20.81,0,0,0-2-6.69,19.82,19.82,0,0,0-4.32-5.68L59,110.93c-.47-.37-1-.65-1.48-1a18,18,0,0,0-3.09-1.57,11,11,0,0,0-1.57-.57l-1.58-.46c-1.06-.29-2.08-.4-3.12-.59a10.28,10.28,0,0,0-1.53-.15l-1.51-.08a23.41,23.41,0,0,0-3,0l-1.51.09c-.5,0-1,.15-1.55.22a20.32,20.32,0,0,0-3.14.68l-1.58.48c-.53.17-1.05.44-1.58.66a15.86,15.86,0,0,0-1.55.76l-1.51.94a18.51,18.51,0,0,0-5.07,5.1,20.25,20.25,0,0,0-2.82,6.44,19,19,0,0,0-.54,3.61V128H17.27l9.87,17.08L37,128H33.09v-2a7.07,7.07,0,0,1,.21-1.29,8.46,8.46,0,0,1,1.14-2.63,6.8,6.8,0,0,1,1.89-1.89,12.65,12.65,0,0,1,6.37-1.78,12.7,12.7,0,0,1,1.95,0l1,0a4.69,4.69,0,0,1,.94.09c.58.13,1.22.16,1.76.32l.8.25a3.08,3.08,0,0,1,.76.26A7.71,7.71,0,0,1,54,123.09a9.11,9.11,0,0,1,.85,2.77,2.13,2.13,0,0,1,0,.53V150Z"/></g></g></svg>