<svg xmlns="http://www.w3.org/2000/svg" xmlns:xlink="http://www.w3.org/1999/xlink" viewBox="0 0 77 76.16"><defs><style>.cls-1{fill:#c1e8d4;}.cls-2,.cls-3{stroke:#231f20;stroke-width:2px;}.cls-2{stroke-miterlimit:10;fill:url(#Névtelen_színátmenet_17);}.cls-3{fill:none;stroke-linecap:round;stroke-linejoin:round;}</style><linearGradient id="Névtelen_színátmenet_17" x1="38.5" x2="38.5" y2="17.54" gradientUnits="userSpaceOnUse"><stop offset="0" stop-color="#e6e7e8" stop-opacity="0.25"/><stop offset="0.45" stop-color="#d8d9db" stop-opacity="0.25"/><stop offset="0.84" stop-color="#aeafb2" stop-opacity="0.25"/><stop offset="1" stop-color="#939598" stop-opacity="0.25"/></linearGradient></defs><g id="Réteg_2" data-name="Réteg 2"><g id="Réteg_1" data-name="Réteg 1"><path class="cls-1" d="M76,17.54V38.73A11.84,11.84,0,0,1,54.1,45a6.84,6.84,0,0,1-3.1.73,6.94,6.94,0,0,1-4.32-1.5,11.82,11.82,0,0,1-14.27,2.44,11.81,11.81,0,0,1-13.77-1.93A9.38,9.38,0,0,1,1,40.29V17.54Z"/><polyline class="cls-2" points="76 0 76 17.54 1 17.54 1 0"/><path class="cls-3" d="M17.29,28a4.4,4.4,0,0,1-6.21,0"/><path class="cls-3" d="M65.44,27.32a8.25,8.25,0,0,1-11.65,0"/><path class="cls-3" d="M34,28.63A4.39,4.39,0,0,1,38.42,33"/><circle class="cls-3" cx="6.42" cy="5.6" r="0.75"/><circle class="cls-3" cx="11.31" cy="11.05" r="0.75"/><circle class="cls-3" cx="21.79" cy="11.05" r="2.56"/><circle class="cls-3" cx="35.71" cy="5.6" r="1.56"/><circle class="cls-3" cx="54.22" cy="13.61" r="1.76"/><circle class="cls-3" cx="50.48" cy="4.02" r="0.83"/><circle class="cls-3" cx="67.43" cy="16.7" r="0.83"/><circle class="cls-3" cx="38.28" cy="16.06" r="0.83"/><circle class="cls-3" cx="62.72" cy="6.3" r="1.94"/><circle class="cls-3" cx="4.33" cy="16.06" r="1.48"/><path class="cls-3" d="M18.64,44.64A9.38,9.38,0,0,1,1,40.2"/><path class="cls-3" d="M15,36.1a11.83,11.83,0,0,0,21.26,7.18"/><path class="cls-3" d="M32.41,46.57a11.84,11.84,0,0,0,14.27-2.45"/><path class="cls-3" d="M54.1,44.89A11.84,11.84,0,0,0,76,38.64"/><path class="cls-3" d="M58,38.64a7,7,0,0,1-3.11,5.81,5.88,5.88,0,0,1-.77.44,6.84,6.84,0,0,1-3.1.73,6.94,6.94,0,0,1-4.32-1.5"/><path class="cls-3" d="M65.7,75.16V63.33a6.7,6.7,0,0,0,0-1,10.6,10.6,0,0,0-1-3.35,10,10,0,0,0-2.16-2.84l-.7-.58c-.23-.18-.49-.33-.74-.49a9.68,9.68,0,0,0-1.54-.78A5.43,5.43,0,0,0,58.7,54l-.79-.23a14.41,14.41,0,0,0-1.57-.29,5,5,0,0,0-.76-.08l-.76,0a10.87,10.87,0,0,0-1.51,0l-.76,0c-.25,0-.52.07-.77.11a10.15,10.15,0,0,0-1.58.34l-.79.24c-.26.09-.53.22-.79.33s-.53.23-.78.38l-.76.48a9.34,9.34,0,0,0-2.54,2.55,10.29,10.29,0,0,0-1.41,3.23,9.46,9.46,0,0,0-.27,1.81v1.24h-2l5,8.55,4.94-8.55h-2v-1a3.37,3.37,0,0,1,.11-.65,4.2,4.2,0,0,1,.57-1.31,3.4,3.4,0,0,1,.94-.95,6.42,6.42,0,0,1,3.2-.89,5.23,5.23,0,0,1,1,0l.49,0a2.42,2.42,0,0,1,.47,0c.29.06.61.08.88.16l.4.12a1.42,1.42,0,0,1,.38.14,3.8,3.8,0,0,1,2.07,1.84,4.56,4.56,0,0,1,.43,1.39,2.1,2.1,0,0,1,0,.27V75.16Z"/><path class="cls-3" d="M33.21,75.16V63.33a6.7,6.7,0,0,0-.05-1,10.6,10.6,0,0,0-1-3.35A9.81,9.81,0,0,0,30,56.16l-.69-.58c-.23-.18-.49-.33-.74-.49A10.13,10.13,0,0,0,27,54.31a5.43,5.43,0,0,0-.79-.29l-.8-.23a14.24,14.24,0,0,0-1.56-.29,5,5,0,0,0-.77-.08l-.75,0a10.87,10.87,0,0,0-1.51,0l-.76,0c-.25,0-.52.07-.78.11a10.29,10.29,0,0,0-1.57.34l-.79.24c-.27.09-.53.22-.79.33s-.53.23-.78.38l-.76.48a9.2,9.2,0,0,0-2.54,2.55,10.06,10.06,0,0,0-1.41,3.23,9.46,9.46,0,0,0-.27,1.81v1.24h-2l4.94,8.55,4.95-8.55h-2v-1a4.06,4.06,0,0,1,.67-2,3.44,3.44,0,0,1,.95-.95,6.41,6.41,0,0,1,3.19-.89,5.35,5.35,0,0,1,1,0l.48,0a2.44,2.44,0,0,1,.48,0c.29.06.61.08.88.16l.4.12a1.42,1.42,0,0,1,.38.14,3.84,3.84,0,0,1,2.07,1.84,4.56,4.56,0,0,1,.43,1.39,2.1,2.1,0,0,1,0,.27V75.16Z"/></g></g></svg>