<svg xmlns="http://www.w3.org/2000/svg" viewBox="0 0 79 79"><defs><style>.cls-1{fill:#c1e8d4;}.cls-1,.cls-4{stroke:#231f20;stroke-miterlimit:10;stroke-width:2px;}.cls-2{fill:#fff;}.cls-3{fill:#231f20;}.cls-4{fill:none;}</style></defs><g id="Réteg_2" data-name="Réteg 2"><g id="Réteg_1" data-name="Réteg 1"><path class="cls-1" d="M57.91,53.11c0,9.28-8.35,16.8-18.64,16.8s-18.64-7.52-18.64-16.8S39.27,8.37,39.27,8.37,57.91,43.83,57.91,53.11Z"/><ellipse class="cls-2" cx="46.3" cy="51.8" rx="5.87" ry="10.47"/><path class="cls-3" d="M39.5,2A37.5,37.5,0,1,1,2,39.5,37.5,37.5,0,0,1,39.5,2m0-2A39.5,39.5,0,1,0,79,39.5,39.55,39.55,0,0,0,39.5,0Z"/><line class="cls-4" x1="66.02" y1="66.02" x2="12.98" y2="12.99"/></g></g></svg>