<svg xmlns="http://www.w3.org/2000/svg" xmlns:xlink="http://www.w3.org/1999/xlink" viewBox="0 0 154.69 158.27"><defs><style>.cls-1,.cls-3,.cls-4{stroke:#231f20;}.cls-1{stroke-miterlimit:10;fill:url(#Névtelen_színátmenet_17);}.cls-1,.cls-4{stroke-width:5px;}.cls-2{fill:#c1e8d4;}.cls-3,.cls-4{fill:none;stroke-linecap:round;stroke-linejoin:round;}.cls-3{stroke-width:3px;}.cls-5{fill:#fff;}.cls-6{fill:#231f20;}</style><linearGradient id="Névtelen_színátmenet_17" x1="30.26" y1="69.76" x2="124.43" y2="69.76" gradientUnits="userSpaceOnUse"><stop offset="0" stop-color="#e6e7e8" stop-opacity="0.25"/><stop offset="0.45" stop-color="#d8d9db" stop-opacity="0.25"/><stop offset="0.84" stop-color="#aeafb2" stop-opacity="0.25"/><stop offset="1" stop-color="#939598" stop-opacity="0.25"/></linearGradient></defs><g id="Réteg_2" data-name="Réteg 2"><g id="Réteg_1" data-name="Réteg 1"><path class="cls-1" d="M119.09,128.92c3.71-8.76,6.1-20.84,5.12-37.42C121.15,39.42,79.28,8.27,79.28,8.27,93.06,35.84,68,51.16,68,51.16A37,37,0,0,0,52.22,29.73c.18.38,4.54,9.48,2,23.47-5.62,24.52-24,24.52-24,55.66a41.13,41.13,0,0,0,1.58,11.52L60,131.25c1.82-8.34,5-12.24,8.54-20.34,5.62-12.77,2.56-26,2.56-26,11.42,11.43,14,29.54,14.25,41.62l5.21.58a52.89,52.89,0,0,0,3-20.24,65.68,65.68,0,0,1,6.39,18Z"/><path class="cls-2" d="M2.5,158.27V132c0-8.1,10.59-14.67,23.64-14.67,8.47,0,15.91,2.77,20.07,6.93a20.87,20.87,0,0,1,6.18-.9A19.81,19.81,0,0,1,61,125.23c4.31-2.91,10.51-4.74,17.4-4.74A35.63,35.63,0,0,1,89.5,122.2a35.68,35.68,0,0,1,11.09-1.71,32.38,32.38,0,0,1,16.39,4.1c3.16-3.64,9.36-6.12,16.5-6.12,10.33,0,18.71,5.2,18.71,11.62v28.18Z"/><path class="cls-3" d="M119.68,150.64a8.75,8.75,0,0,1,12.38,0"/><path class="cls-3" d="M23.59,151.92a16.43,16.43,0,0,1,23.24,0"/><path class="cls-3" d="M86.26,149.29a8.76,8.76,0,0,1-8.76-8.76"/><path class="cls-4" d="M117,129.2a18.72,18.72,0,0,1,35.21,8.85"/><path class="cls-4" d="M124.23,146.23A23.64,23.64,0,0,0,81.79,131.9"/><path class="cls-4" d="M89.5,125.35A23.64,23.64,0,0,0,61,130.23"/><path class="cls-4" d="M46.21,128.69A23.64,23.64,0,0,0,2.5,141.17"/><path class="cls-4" d="M61,130.23a13.91,13.91,0,0,0-14.8-1.54,12.9,12.9,0,0,0-1.53.88,13.9,13.9,0,0,0-6.22,11.6"/><polygon class="cls-5" points="78.56 99.91 38.45 140.03 26.22 127.8 66.33 87.68 26.17 47.52 38.4 35.29 78.56 75.45 118.73 35.29 130.96 47.52 90.79 87.68 130.91 127.8 118.68 140.03 78.56 99.91"/><path class="cls-6" d="M118.73,38.82l8.69,8.7L87.26,87.68l40.12,40.12-8.7,8.69L78.56,96.38,38.45,136.49l-8.7-8.69L69.87,87.68,29.71,47.52l8.69-8.7L78.56,79l40.17-40.17m0-7.07-3.54,3.54L78.56,71.92,41.94,35.29,38.4,31.75l-3.54,3.54L26.17,44l-3.54,3.54,3.54,3.53L62.8,87.68,26.22,124.26l-3.54,3.54,3.54,3.54L34.91,140l3.54,3.54L42,140l36.58-36.58L115.15,140l3.53,3.54,3.54-3.54,8.69-8.69,3.54-3.54-3.54-3.54L94.33,87.68,131,51.05l3.53-3.53L131,44l-8.7-8.69-3.53-3.54Z"/></g></g></svg>