<svg xmlns="http://www.w3.org/2000/svg" xmlns:xlink="http://www.w3.org/1999/xlink" viewBox="0 0 77 78.46"><defs><style>.cls-1,.cls-3{stroke:#231f20;stroke-width:2px;}.cls-1{stroke-miterlimit:10;fill:url(#Névtelen_színátmenet_17);}.cls-2{fill:#c1e8d4;}.cls-3{fill:none;stroke-linecap:round;stroke-linejoin:round;}.cls-4{fill:#fff;}.cls-5{fill:#231f20;}</style><linearGradient id="Névtelen_színátmenet_17" x1="14.91" y1="34.12" x2="62.09" y2="34.12" gradientUnits="userSpaceOnUse"><stop offset="0" stop-color="#e6e7e8" stop-opacity="0.25"/><stop offset="0.45" stop-color="#d8d9db" stop-opacity="0.25"/><stop offset="0.84" stop-color="#aeafb2" stop-opacity="0.25"/><stop offset="1" stop-color="#939598" stop-opacity="0.25"/></linearGradient></defs><g id="Réteg_2" data-name="Réteg 2"><g id="Réteg_1" data-name="Réteg 1"><path class="cls-1" d="M59.42,63.76c1.86-4.39,3-10.44,2.56-18.75C60.45,18.92,39.47,3.31,39.47,3.31c6.9,13.81-5.63,21.49-5.63,21.49a18.56,18.56,0,0,0-7.93-10.74c.09.19,2.28,4.75,1,11.76-2.81,12.29-12,12.29-12,27.89a20.69,20.69,0,0,0,.79,5.77l14.12,5.45c.91-4.18,2.49-6.14,4.27-10.2a23.07,23.07,0,0,0,1.29-13c5.72,5.73,7,14.8,7.14,20.86l2.61.28a26.5,26.5,0,0,0,1.5-10.13,32.89,32.89,0,0,1,3.2,9Z"/><path class="cls-2" d="M1,78.46V65.31C1,61.25,6.31,58,12.84,58c4.25,0,8,1.39,10.06,3.47A10.45,10.45,0,0,1,26,61a10,10,0,0,1,4.32.93A15.77,15.77,0,0,1,39,59.53a18.06,18.06,0,0,1,5.56.86,18.06,18.06,0,0,1,5.56-.86,16.25,16.25,0,0,1,8.21,2.06c1.58-1.82,4.69-3.07,8.27-3.07,5.17,0,9.37,2.61,9.37,5.82V78.46Z"/><path class="cls-3" d="M59.71,74.64a4.4,4.4,0,0,1,6.21,0"/><path class="cls-3" d="M11.56,75.28a8.25,8.25,0,0,1,11.65,0"/><path class="cls-3" d="M43,74a4.38,4.38,0,0,1-4.39-4.38"/><path class="cls-3" d="M58.36,63.9A9.38,9.38,0,0,1,76,68.33"/><path class="cls-3" d="M62,72.43a11.84,11.84,0,0,0-21.26-7.18"/><path class="cls-3" d="M44.59,62a11.82,11.82,0,0,0-14.27,2.44"/><path class="cls-3" d="M22.9,63.64A11.84,11.84,0,0,0,1,69.89"/><path class="cls-3" d="M30.32,64.41a7,7,0,0,0-7.42-.77,7.3,7.3,0,0,0-.77.44A7,7,0,0,0,19,69.89"/><polygon class="cls-4" points="13.24 63.2 33.34 43.1 13.22 22.97 18.99 17.2 39.11 37.33 59.23 17.2 65 22.97 44.88 43.1 64.98 63.2 59.21 68.97 39.11 48.87 19.01 68.97 13.24 63.2"/><path class="cls-5" d="M59.23,18.62,63.59,23,43.47,43.1l20.1,20.1-4.36,4.35-20.1-20.1L19,67.55,14.65,63.2l20.1-20.1L14.63,23,19,18.62,39.11,38.74,59.23,18.62m0-2.83L57.82,17.2,39.11,35.91,20.4,17.2,19,15.79,17.57,17.2l-4.35,4.36L11.8,23l1.42,1.42L31.93,43.1,13.24,61.78,11.83,63.2l1.41,1.41L17.6,69,19,70.38,20.42,69,39.11,50.28,57.8,69l1.41,1.41L60.62,69,65,64.61,66.4,63.2,65,61.78,46.3,43.1,65,24.39,66.42,23,65,21.56,60.65,17.2l-1.42-1.41Z"/></g></g></svg>