<svg xmlns="http://www.w3.org/2000/svg" xmlns:xlink="http://www.w3.org/1999/xlink" viewBox="0 0 77 77"><defs><style>.cls-1{fill:#c1e8d4;}.cls-2,.cls-3,.cls-4,.cls-5{stroke:#231f20;stroke-width:2px;}.cls-2,.cls-3,.cls-5{stroke-miterlimit:10;}.cls-2{fill:url(#Névtelen_színátmenet_17);}.cls-3{fill:url(#Névtelen_színátmenet_17-2);}.cls-4{fill:none;stroke-linecap:round;stroke-linejoin:round;}.cls-5{fill:url(#Névtelen_színátmenet_17-3);}</style><linearGradient id="Névtelen_színátmenet_17" x1="1" y1="38.5" x2="18.5" y2="38.5" gradientUnits="userSpaceOnUse"><stop offset="0" stop-color="#e6e7e8" stop-opacity="0.25"/><stop offset="0.45" stop-color="#d8d9db" stop-opacity="0.25"/><stop offset="0.84" stop-color="#aeafb2" stop-opacity="0.25"/><stop offset="1" stop-color="#939598" stop-opacity="0.25"/></linearGradient><linearGradient id="Névtelen_színátmenet_17-2" x1="58.5" y1="38.5" x2="76" y2="38.5" xlink:href="#Névtelen_színátmenet_17"/><linearGradient id="Névtelen_színátmenet_17-3" x1="18.5" y1="67.25" x2="58.5" y2="67.25" gradientTransform="translate(-28.75 105.75) rotate(-90)" xlink:href="#Névtelen_színátmenet_17"/></defs><g id="Réteg_2" data-name="Réteg 2"><g id="Réteg_1" data-name="Réteg 1"><path class="cls-1" d="M58.5,4.26V58.5h-40V3.08A7.45,7.45,0,0,1,24.17,7.8a10.08,10.08,0,0,1,3.06-.93,13.73,13.73,0,0,1,22.84.48,7.93,7.93,0,0,1,1-.06,7.64,7.64,0,0,1,1.36.12A7.46,7.46,0,0,1,58.5,4.26Z"/><rect class="cls-2" x="1" y="1" width="17.5" height="75"/><rect class="cls-3" x="58.5" y="1" width="17.5" height="75"/><line class="cls-4" x1="18.5" y1="1.66" x2="1" y2="19.16"/><line class="cls-4" x1="5.27" y1="1" x2="1" y2="5.27"/><line class="cls-4" x1="18.5" y1="15.55" x2="1" y2="33.05"/><line class="cls-4" x1="18.5" y1="29.44" x2="1" y2="46.94"/><line class="cls-4" x1="18.5" y1="43.33" x2="1" y2="60.83"/><line class="cls-4" x1="18.5" y1="57.22" x2="1" y2="74.72"/><line class="cls-4" x1="18.5" y1="71.11" x2="13.61" y2="76"/><line class="cls-4" x1="76" y1="1.66" x2="58.5" y2="19.16"/><line class="cls-4" x1="62.77" y1="1" x2="58.5" y2="5.27"/><line class="cls-4" x1="76" y1="15.55" x2="58.5" y2="33.05"/><line class="cls-4" x1="76" y1="29.44" x2="58.5" y2="46.94"/><line class="cls-4" x1="76" y1="43.33" x2="58.5" y2="60.83"/><line class="cls-4" x1="76" y1="57.22" x2="58.5" y2="74.72"/><line class="cls-4" x1="76" y1="71.11" x2="71.11" y2="76"/><rect class="cls-5" x="29.75" y="47.25" width="17.5" height="40" transform="translate(105.75 28.75) rotate(90)"/><line class="cls-4" x1="13.61" y1="76" x2="31.07" y2="58.5"/><line class="cls-4" x1="29.54" y1="76" x2="47" y2="58.5"/><line class="cls-4" x1="43.4" y1="76" x2="60.86" y2="58.5"/><path class="cls-4" d="M27.24,6.87a10.23,10.23,0,0,0-3.07.93"/><path class="cls-4" d="M27.24,6.87a13.73,13.73,0,0,1,22.84.48"/><path class="cls-4" d="M50.08,7.35a7.77,7.77,0,0,1,1-.06,7.67,7.67,0,0,1,1.37.12"/><path class="cls-4" d="M52.42,7.41A7.45,7.45,0,0,1,58.5,4.26"/><path class="cls-4" d="M18.5,3.08A7.43,7.43,0,0,1,24.17,7.8"/><path class="cls-4" d="M18.54,17.74h0"/><path class="cls-4" d="M41.81,50.64a11.08,11.08,0,0,1,4.57-1,11.27,11.27,0,0,1,5.81,1.61"/><path class="cls-4" d="M29.18,14.6a6.48,6.48,0,0,1,2.21-1.51,6.41,6.41,0,0,1,3.44-.4"/><path class="cls-4" d="M25,25.21c.11-.12.22-.24.34-.35a4,4,0,0,1,4.7-.56"/><path class="cls-4" d="M46.42,11.67A4.38,4.38,0,0,1,50.8,7.29"/><path class="cls-4" d="M27,43.86a4.38,4.38,0,0,1,4.38-4.37"/><path class="cls-4" d="M47.89,27.25a4.39,4.39,0,0,1,4.38,4.38"/></g></g></svg>