<svg xmlns="http://www.w3.org/2000/svg" xmlns:xlink="http://www.w3.org/1999/xlink" viewBox="0 0 155 155"><defs><style>.cls-1{fill:#c1e8d4;}.cls-2,.cls-3,.cls-4,.cls-5,.cls-6{stroke:#231f20;}.cls-2,.cls-3,.cls-5{stroke-miterlimit:10;}.cls-2,.cls-3,.cls-5,.cls-6{stroke-width:5px;}.cls-2{fill:url(#Névtelen_színátmenet_17);}.cls-3{fill:url(#Névtelen_színátmenet_17-2);}.cls-4,.cls-6{fill:none;stroke-linecap:round;stroke-linejoin:round;}.cls-4{stroke-width:3px;}.cls-5{fill:url(#Névtelen_színátmenet_17-3);}</style><linearGradient id="Névtelen_színátmenet_17" x1="2.5" y1="77.5" x2="37.5" y2="77.5" gradientUnits="userSpaceOnUse"><stop offset="0" stop-color="#e6e7e8" stop-opacity="0.25"/><stop offset="0.45" stop-color="#d8d9db" stop-opacity="0.25"/><stop offset="0.84" stop-color="#aeafb2" stop-opacity="0.25"/><stop offset="1" stop-color="#939598" stop-opacity="0.25"/></linearGradient><linearGradient id="Névtelen_színátmenet_17-2" x1="117.5" x2="152.5" xlink:href="#Névtelen_színátmenet_17"/><linearGradient id="Névtelen_színátmenet_17-3" x1="37.5" y1="135" x2="117.5" y2="135" gradientTransform="translate(-57.5 212.5) rotate(-90)" xlink:href="#Névtelen_színátmenet_17"/></defs><g id="Réteg_2" data-name="Réteg 2"><g id="Réteg_1" data-name="Réteg 1"><path class="cls-1" d="M117.5,9V117.5h-80V6.66a14.87,14.87,0,0,1,11.34,9.45A19.76,19.76,0,0,1,55,14.25a27.46,27.46,0,0,1,45.68,1,14,14,0,0,1,1.95-.13,15.31,15.31,0,0,1,2.73.25A14.88,14.88,0,0,1,117.5,9Z"/><rect class="cls-2" x="2.5" y="2.5" width="35" height="150"/><rect class="cls-3" x="117.5" y="2.5" width="35" height="150"/><line class="cls-4" x1="37.5" y1="3.82" x2="2.5" y2="38.82"/><line class="cls-4" x1="11.04" y1="2.5" x2="2.5" y2="11.04"/><line class="cls-4" x1="37.5" y1="31.6" x2="2.5" y2="66.6"/><line class="cls-4" x1="37.5" y1="59.38" x2="2.5" y2="94.38"/><line class="cls-4" x1="37.5" y1="87.16" x2="2.5" y2="122.16"/><line class="cls-4" x1="37.5" y1="114.94" x2="2.5" y2="149.94"/><line class="cls-4" x1="37.5" y1="142.72" x2="27.72" y2="152.5"/><line class="cls-4" x1="152.5" y1="3.82" x2="117.5" y2="38.82"/><line class="cls-4" x1="126.04" y1="2.5" x2="117.5" y2="11.04"/><line class="cls-4" x1="152.5" y1="31.6" x2="117.5" y2="66.6"/><line class="cls-4" x1="152.5" y1="59.38" x2="117.5" y2="94.38"/><line class="cls-4" x1="152.5" y1="87.16" x2="117.5" y2="122.16"/><line class="cls-4" x1="152.5" y1="114.94" x2="117.5" y2="149.94"/><line class="cls-4" x1="152.5" y1="142.72" x2="142.72" y2="152.5"/><rect class="cls-5" x="60" y="95" width="35" height="80" transform="translate(212.5 57.5) rotate(90)"/><line class="cls-4" x1="27.72" y1="152.5" x2="62.65" y2="117.5"/><line class="cls-4" x1="59.57" y1="152.5" x2="94.5" y2="117.5"/><line class="cls-4" x1="87.29" y1="152.5" x2="122.22" y2="117.5"/><path class="cls-6" d="M55,14.25a19.76,19.76,0,0,0-6.13,1.86"/><path class="cls-6" d="M55,14.25a27.46,27.46,0,0,1,45.68,1"/><path class="cls-6" d="M100.65,15.21a14,14,0,0,1,1.95-.13,15.31,15.31,0,0,1,2.73.25"/><path class="cls-6" d="M105.33,15.33A14.88,14.88,0,0,1,117.5,9"/><path class="cls-6" d="M37.5,6.66a14.87,14.87,0,0,1,11.34,9.45"/><path class="cls-6" d="M37.58,36H37.5"/><path class="cls-4" d="M84.12,101.78a22.62,22.62,0,0,1,20.76,1.28"/><path class="cls-4" d="M58.85,29.69a13,13,0,0,1,11.3-3.81"/><path class="cls-4" d="M50.52,50.93a9.2,9.2,0,0,1,.68-.72,8,8,0,0,1,9.41-1.12"/><path class="cls-4" d="M93.35,23.84a8.76,8.76,0,0,1,8.75-8.76"/><path class="cls-4" d="M54.48,88.23a8.76,8.76,0,0,1,8.75-8.76"/><path class="cls-4" d="M96.27,55A8.76,8.76,0,0,1,105,63.76"/></g></g></svg>