<svg xmlns="http://www.w3.org/2000/svg" xmlns:xlink="http://www.w3.org/1999/xlink" viewBox="0 0 162.09 152.31"><defs><style>.cls-1,.cls-2{stroke:#231f20;stroke-width:5px;}.cls-1{stroke-miterlimit:10;fill:url(#Névtelen_színátmenet_17);}.cls-2{fill:#c1e8d4;stroke-linecap:round;stroke-linejoin:round;}</style><linearGradient id="Névtelen_színátmenet_17" x1="6.04" y1="76.67" x2="156.04" y2="76.67" gradientUnits="userSpaceOnUse"><stop offset="0" stop-color="#e6e7e8" stop-opacity="0.25"/><stop offset="0.45" stop-color="#d8d9db" stop-opacity="0.25"/><stop offset="0.84" stop-color="#aeafb2" stop-opacity="0.25"/><stop offset="1" stop-color="#939598" stop-opacity="0.25"/></linearGradient></defs><g id="Réteg_2" data-name="Réteg 2"><g id="Réteg_1" data-name="Réteg 1"><polygon class="cls-1" points="44.87 27.2 48.16 27.2 48.16 15.54 44.87 15.54 27.64 15.54 24.35 15.54 24.35 27.2 27.64 27.2 27.64 56.94 6.04 78.54 22.9 78.52 22.9 149.81 139.17 149.81 139.17 78.52 156.04 78.54 81.04 3.54 44.87 39.71 44.87 27.2"/><path class="cls-2" d="M81,79.27A12.94,12.94,0,1,0,57.73,87L81,117l23.32-30A12.95,12.95,0,1,0,81,79.27"/></g></g></svg>