<svg xmlns="http://www.w3.org/2000/svg" xmlns:xlink="http://www.w3.org/1999/xlink" viewBox="0 0 79.83 75.55"><defs><style>.cls-1,.cls-2{stroke:#231f20;stroke-width:2px;}.cls-1{stroke-miterlimit:10;fill:url(#Névtelen_színátmenet_17);}.cls-2{fill:#c1e8d4;stroke-linecap:round;stroke-linejoin:round;}</style><linearGradient id="Névtelen_színátmenet_17" x1="2.42" y1="37.98" x2="77.42" y2="37.98" gradientUnits="userSpaceOnUse"><stop offset="0" stop-color="#e6e7e8" stop-opacity="0.25"/><stop offset="0.45" stop-color="#d8d9db" stop-opacity="0.25"/><stop offset="0.84" stop-color="#aeafb2" stop-opacity="0.25"/><stop offset="1" stop-color="#939598" stop-opacity="0.25"/></linearGradient></defs><g id="Réteg_2" data-name="Réteg 2"><g id="Réteg_1" data-name="Réteg 1"><polygon class="cls-1" points="21.83 13.24 23.48 13.24 23.48 7.41 21.83 7.41 13.22 7.41 11.57 7.41 11.57 13.24 13.22 13.24 13.22 28.11 2.42 38.91 10.85 38.9 10.85 74.55 68.98 74.55 68.98 38.9 77.42 38.91 39.92 1.41 21.83 19.5 21.83 13.24"/><path class="cls-2" d="M39.92,39.28a6.47,6.47,0,1,0-11.66,3.87l11.66,15,11.65-15a6.47,6.47,0,1,0-11.65-3.87"/></g></g></svg>