<svg xmlns="http://www.w3.org/2000/svg" viewBox="0 0 46 61"><defs><style>.cls-1{fill:#231f20;}</style></defs><g id="Réteg_2" data-name="Réteg 2"><g id="Réteg_1" data-name="Réteg 1"><path class="cls-1" d="M45.5,0H.5A.5.5,0,0,0,0,.5v60a.5.5,0,0,0,.5.5h45a.5.5,0,0,0,.5-.5V.5A.5.5,0,0,0,45.5,0ZM19.91,60V48.19H26.1V60ZM45,60H27.1V47.69a.5.5,0,0,0-.5-.5H19.41a.5.5,0,0,0-.5.5V60H1V1H45Z"/><path class="cls-1" d="M8.17,15.8h7.19a.5.5,0,0,0,.5-.5V8.11a.5.5,0,0,0-.5-.5H8.17a.5.5,0,0,0-.5.5V15.3A.5.5,0,0,0,8.17,15.8Zm.5-7.19h6.19V14.8H8.67Z"/><path class="cls-1" d="M19.41,15.8H26.6a.5.5,0,0,0,.5-.5V8.11a.5.5,0,0,0-.5-.5H19.41a.5.5,0,0,0-.5.5V15.3A.5.5,0,0,0,19.41,15.8Zm.5-7.19H26.1V14.8H19.91Z"/><path class="cls-1" d="M30.64,15.8h7.19a.5.5,0,0,0,.5-.5V8.11a.5.5,0,0,0-.5-.5H30.64a.5.5,0,0,0-.5.5V15.3A.5.5,0,0,0,30.64,15.8Zm.5-7.19h6.19V14.8H31.14Z"/><path class="cls-1" d="M8.17,27.25h7.19a.5.5,0,0,0,.5-.5V19.56a.5.5,0,0,0-.5-.5H8.17a.5.5,0,0,0-.5.5v7.19A.5.5,0,0,0,8.17,27.25Zm.5-7.19h6.19v6.19H8.67Z"/><path class="cls-1" d="M19.41,27.25H26.6a.5.5,0,0,0,.5-.5V19.56a.5.5,0,0,0-.5-.5H19.41a.5.5,0,0,0-.5.5v7.19A.5.5,0,0,0,19.41,27.25Zm.5-7.19H26.1v6.19H19.91Z"/><path class="cls-1" d="M30.64,27.25h7.19a.5.5,0,0,0,.5-.5V19.56a.5.5,0,0,0-.5-.5H30.64a.5.5,0,0,0-.5.5v7.19A.5.5,0,0,0,30.64,27.25Zm.5-7.19h6.19v6.19H31.14Z"/><path class="cls-1" d="M8.17,38.7h7.19a.5.5,0,0,0,.5-.5V31a.5.5,0,0,0-.5-.5H8.17a.5.5,0,0,0-.5.5v7.2A.5.5,0,0,0,8.17,38.7Zm.5-7.2h6.19v6.2H8.67Z"/><path class="cls-1" d="M19.41,38.7H26.6a.51.51,0,0,0,.5-.5V31a.51.51,0,0,0-.5-.5H19.41a.5.5,0,0,0-.5.5v7.2A.5.5,0,0,0,19.41,38.7Zm.5-7.2H26.1v6.2H19.91Z"/><path class="cls-1" d="M30.64,38.7h7.19a.5.5,0,0,0,.5-.5V31a.5.5,0,0,0-.5-.5H30.64a.51.51,0,0,0-.5.5v7.2A.51.51,0,0,0,30.64,38.7Zm.5-7.2h6.19v6.2H31.14Z"/></g></g></svg>