<svg xmlns="http://www.w3.org/2000/svg" viewBox="0 0 47 62"><defs><style>.cls-1{fill:#fff;}</style></defs><g id="Réteg_2" data-name="Réteg 2"><g id="Réteg_1" data-name="Réteg 1"><path class="cls-1" d="M46,0H1A1,1,0,0,0,0,1V61a1,1,0,0,0,1,1H46a1,1,0,0,0,1-1V1A1,1,0,0,0,46,0ZM26.1,49.19V60H20.91V49.19Zm1-2H19.91a1,1,0,0,0-1,1V60H2V2H45V60H28.1V48.19A1,1,0,0,0,27.1,47.19Z"/><path class="cls-1" d="M15.86,7.61H8.67a1,1,0,0,0-1,1V15.8a1,1,0,0,0,1,1h7.19a1,1,0,0,0,1-1V8.61A1,1,0,0,0,15.86,7.61ZM9.67,14.8V9.61h5.19V14.8Z"/><path class="cls-1" d="M19.91,16.8H27.1a1,1,0,0,0,1-1V8.61a1,1,0,0,0-1-1H19.91a1,1,0,0,0-1,1V15.8A1,1,0,0,0,19.91,16.8ZM26.1,9.61V14.8H20.91V9.61Z"/><path class="cls-1" d="M31.14,16.8h7.19a1,1,0,0,0,1-1V8.61a1,1,0,0,0-1-1H31.14a1,1,0,0,0-1,1V15.8A1,1,0,0,0,31.14,16.8Zm6.19-7.19V14.8H32.14V9.61Z"/><path class="cls-1" d="M15.86,19.06H8.67a1,1,0,0,0-1,1v7.19a1,1,0,0,0,1,1h7.19a1,1,0,0,0,1-1V20.06A1,1,0,0,0,15.86,19.06ZM9.67,26.25V21.06h5.19v5.19Z"/><path class="cls-1" d="M19.91,28.25H27.1a1,1,0,0,0,1-1V20.06a1,1,0,0,0-1-1H19.91a1,1,0,0,0-1,1v7.19A1,1,0,0,0,19.91,28.25Zm6.19-7.19v5.19H20.91V21.06Z"/><path class="cls-1" d="M31.14,28.25h7.19a1,1,0,0,0,1-1V20.06a1,1,0,0,0-1-1H31.14a1,1,0,0,0-1,1v7.19A1,1,0,0,0,31.14,28.25Zm6.19-7.19v5.19H32.14V21.06Z"/><path class="cls-1" d="M15.86,30.5H8.67a1,1,0,0,0-1,1v7.2a1,1,0,0,0,1,1h7.19a1,1,0,0,0,1-1V31.5A1,1,0,0,0,15.86,30.5ZM9.67,37.7V32.5h5.19v5.2Z"/><path class="cls-1" d="M28.1,31.5a1,1,0,0,0-1-1H19.91a1,1,0,0,0-1,1v7.2a1,1,0,0,0,1,1H27.1a1,1,0,0,0,1-1Zm-7.19,6.2V32.5H26.1v5.2Z"/><path class="cls-1" d="M31.14,39.7h7.19a1,1,0,0,0,1-1V31.5a1,1,0,0,0-1-1H31.14a1,1,0,0,0-1,1v7.2A1,1,0,0,0,31.14,39.7Zm6.19-7.2v5.2H32.14V32.5Z"/></g></g></svg>