<svg xmlns="http://www.w3.org/2000/svg" viewBox="0 0 79.02 80.28"><defs><style>.cls-1{fill:none;stroke:#231f20;stroke-linecap:round;stroke-linejoin:round;}</style></defs><g id="Réteg_2" data-name="Réteg 2"><g id="Réteg_1" data-name="Réteg 1"><path class="cls-1" d="M52.36,74H13.89V3.56A58.75,58.75,0,0,1,33.13.5,58.73,58.73,0,0,1,52.36,3.56Z"/><path class="cls-1" d="M52.36,14.54a37.92,37.92,0,0,1,8-1c13,0,18.19,3.06,18.19,3.06V74H44.4"/><path class="cls-1" d="M13.89,28.33A46.83,46.83,0,0,0,.5,30.13V74h28"/><line class="cls-1" x1="2.94" y1="74.03" x2="2.94" y2="79.78"/><line class="cls-1" x1="17.39" y1="74.03" x2="17.39" y2="79.78"/><line class="cls-1" x1="48" y1="74.03" x2="48" y2="79.78"/><line class="cls-1" x1="74.45" y1="74.03" x2="74.45" y2="79.78"/><line class="cls-1" x1="25.15" y1="74.03" x2="25.15" y2="79.78"/></g></g></svg>