<svg xmlns="http://www.w3.org/2000/svg" viewBox="0 0 80.02 81.28"><defs><style>.cls-1{fill:#fff;}</style></defs><g id="Réteg_2" data-name="Réteg 2"><g id="Réteg_1" data-name="Réteg 1"><path class="cls-1" d="M79.53,16.22h0C79.3,16.09,73.9,13,60.83,13a36.23,36.23,0,0,0-7,.78V4.06a1,1,0,0,0-.65-.93A60.29,60.29,0,0,0,33.63,0,60.32,60.32,0,0,0,14,3.13a1,1,0,0,0-.64.93V27.84A45.87,45.87,0,0,0,.69,29.69a1,1,0,0,0-.69.94v43.9a1,1,0,0,0,1,1H2.44v4.75a1,1,0,0,0,2,0V75.53H16.89v4.75a1,1,0,0,0,2,0V75.53h5.76v4.75a1,1,0,0,0,2,0V75.53H47.5v4.75a1,1,0,0,0,2,0V75.53H74v4.75a1,1,0,0,0,2,0V75.53H79a1,1,0,0,0,1-1V17.08A1,1,0,0,0,79.53,16.22ZM13.39,29.84V73.53H2V31.38A48,48,0,0,1,13.39,29.84Zm2,43.69V4.77a61.44,61.44,0,0,1,36.48,0V73.53Zm62.63,0H53.87V15.84a36.09,36.09,0,0,1,7-.82C71.14,15,76.52,17,78,17.71Z"/></g></g></svg>