<svg xmlns="http://www.w3.org/2000/svg" xmlns:xlink="http://www.w3.org/1999/xlink" viewBox="0 0 79 79"><defs><style>.cls-1{fill:#c1e8d4;}.cls-2,.cls-3,.cls-5{stroke:#231f20;stroke-width:2px;}.cls-2,.cls-5{stroke-miterlimit:10;}.cls-2{fill:url(#Névtelen_színátmenet_17);}.cls-3,.cls-5{fill:none;}.cls-3{stroke-linecap:round;stroke-linejoin:round;}.cls-4{fill:#231f20;}</style><linearGradient id="Névtelen_színátmenet_17" x1="31.39" y1="4.81" x2="31.39" y2="22.34" gradientUnits="userSpaceOnUse"><stop offset="0" stop-color="#e6e7e8" stop-opacity="0.25"/><stop offset="0.45" stop-color="#d8d9db" stop-opacity="0.25"/><stop offset="0.84" stop-color="#aeafb2" stop-opacity="0.25"/><stop offset="1" stop-color="#939598" stop-opacity="0.25"/></linearGradient></defs><g id="Réteg_2" data-name="Réteg 2"><g id="Réteg_1" data-name="Réteg 1"><polygon class="cls-1" points="42.46 52.76 65.18 58.05 57.09 69.1 48.06 71.49 40.24 67.11 37.95 59.45 37.48 56.95 42.46 52.76"/><path class="cls-1" d="M56.63,22.34v14L41.92,41.93,39,43l-.43.75L35.5,49.26l-.77.44,0,.11a6.89,6.89,0,0,1-3,.7A7,7,0,0,1,27.32,49,11.87,11.87,0,0,1,13,51.46a11.88,11.88,0,0,1-8.76.94.22.22,0,0,1,0-.1,37.54,37.54,0,0,1,1.9-30Z"/><path class="cls-2" d="M17.35,9.24a37.2,37.2,0,0,1,7.89-4.43H53.76l2.87,1.32V22.34H6.15A37.11,37.11,0,0,1,13,13c.64-.64,1.3-1.26,2-1.86"/><path class="cls-3" d="M46.07,32.12a8.23,8.23,0,0,1-11.65,0"/><path class="cls-3" d="M14.67,33.44a4.39,4.39,0,0,1,4.38,4.39"/><path class="cls-3" d="M17.35,9.24a1.48,1.48,0,0,1,.55,1.17A1.56,1.56,0,0,1,16.34,12,1.53,1.53,0,0,1,15,11.13"/><circle class="cls-3" cx="34.86" cy="18.42" r="1.76"/><circle class="cls-3" cx="31.11" cy="8.82" r="0.83"/><circle class="cls-3" cx="48.06" cy="21.51" r="0.83"/><circle class="cls-3" cx="18.91" cy="20.87" r="0.83"/><circle class="cls-3" cx="43.36" cy="11.11" r="1.94"/><path class="cls-3" d="M4.25,52.3a11.58,11.58,0,0,0,3.24.46,11.9,11.9,0,0,0,9.42-4.67"/><path class="cls-3" d="M13,51.37a11.83,11.83,0,0,0,14.28-2.44"/><path class="cls-3" d="M38.26,57A11.85,11.85,0,0,0,58.17,68"/><path class="cls-3" d="M38.62,43.45a7,7,0,0,1-3.12,5.81,7.3,7.3,0,0,1-.77.44,6.83,6.83,0,0,1-3.09.73,6.92,6.92,0,0,1-4.32-1.5"/><polygon class="cls-1" points="52.8 45.54 56.31 42.02 59 44.71 52.8 45.54"/><polygon class="cls-1" points="42.71 48.35 42.71 43.45 48.9 45.54 50.5 49.7 42.71 48.35"/><path class="cls-4" d="M39.5,2A37.34,37.34,0,0,1,53.76,4.81c1,.4,1.94.84,2.87,1.32A37.51,37.51,0,1,1,4.28,52.4a.22.22,0,0,1,0-.1A37.45,37.45,0,0,1,13,13c.64-.64,1.3-1.26,2-1.86s1.56-1.29,2.38-1.89A37.37,37.37,0,0,1,39.5,2m0-2A39.4,39.4,0,0,0,16.16,7.63c-.89.66-1.74,1.33-2.5,2s-1.39,1.25-2.09,2A39.5,39.5,0,0,0,2.32,52.85a1.82,1.82,0,0,0,.11.3A39.5,39.5,0,1,0,57.55,4.35c-1-.5-2-1-3-1.39a39.28,39.28,0,0,0-15-3Z"/><line class="cls-5" x1="66.01" y1="66.02" x2="12.98" y2="12.99"/></g></g></svg>