<svg xmlns="http://www.w3.org/2000/svg" viewBox="0 0 75.45 59.19"><defs><style>.cls-1{fill:none;stroke:#231f20;stroke-linecap:round;stroke-linejoin:round;}</style></defs><g id="Réteg_2" data-name="Réteg 2"><g id="Réteg_1" data-name="Réteg 1"><rect class="cls-1" x="3.89" y="39.99" width="7.19" height="7.19"/><rect class="cls-1" x="15.88" y="39.99" width="7.19" height="7.19"/><rect class="cls-1" x="27.87" y="39.99" width="7.19" height="7.19"/><rect class="cls-1" x="39.86" y="39.99" width="7.19" height="7.19"/><rect class="cls-1" x="51.85" y="39.99" width="7.19" height="7.19"/><rect class="cls-1" x="63.84" y="39.99" width="7.19" height="7.19"/><line class="cls-1" x1="44.89" y1="35.68" x2="44.54" y2="35.68"/><polyline class="cls-1" points="74.95 35.68 74.95 58.69 0.5 58.69 0.5 35.68"/><line class="cls-1" x1="14.48" y1="35.68" x2="0.5" y2="28.22"/><polyline class="cls-1" points="14.48 27.66 22 31.67 29.51 35.68"/><polyline class="cls-1" points="29.51 27.66 37.2 31.76 44.54 35.68"/><polyline class="cls-1" points="44.89 27.66 52.41 31.67 59.92 35.68"/><line class="cls-1" x1="74.95" y1="35.68" x2="59.92" y2="27.66"/><line class="cls-1" x1="0.5" y1="35.68" x2="0.5" y2="28.22"/><line class="cls-1" x1="14.48" y1="35.68" x2="14.48" y2="27.66"/><line class="cls-1" x1="29.51" y1="35.68" x2="29.51" y2="27.66"/><line class="cls-1" x1="44.89" y1="35.68" x2="44.89" y2="27.66"/><line class="cls-1" x1="59.92" y1="35.68" x2="59.92" y2="27.66"/><polyline class="cls-1" points="7.49 31.95 7.49 6.6 22.89 6.6 22.89 32.15"/><polyline class="cls-1" points="29 35.41 29 13.75 40.23 13.75 40.23 33.38"/><path class="cls-1" d="M34.51,10.36a6.53,6.53,0,0,1,5.67-3.27c4,0,3.73,3.27,9.62,3.27s7.06-3.27,7.06-3.27"/><path class="cls-1" d="M14.22,3.77A6.54,6.54,0,0,1,19.89.5c4,0,3.74,3.27,9.63,3.27S36.58.5,36.58.5"/><line class="cls-1" x1="7.49" y1="11.97" x2="22.89" y2="11.97"/><line class="cls-1" x1="29" y1="17.71" x2="40.23" y2="17.71"/></g></g></svg>