<svg xmlns="http://www.w3.org/2000/svg" viewBox="0 0 76.45 60.19"><defs><style>.cls-1{fill:#fff;}</style></defs><g id="Réteg_2" data-name="Réteg 2"><g id="Réteg_1" data-name="Réteg 1"><path class="cls-1" d="M11.59,39.49H4.39a1,1,0,0,0-1,1v7.2a1,1,0,0,0,1,1h7.2a1,1,0,0,0,1-1v-7.2A1,1,0,0,0,11.59,39.49Zm-6.2,7.2v-5.2h5.2v5.2Z"/><path class="cls-1" d="M16.38,48.69h7.2a1,1,0,0,0,1-1v-7.2a1,1,0,0,0-1-1h-7.2a1,1,0,0,0-1,1v7.2A1,1,0,0,0,16.38,48.69Zm6.2-7.2v5.2h-5.2v-5.2Z"/><path class="cls-1" d="M28.37,48.69h7.19a1,1,0,0,0,1-1v-7.2a1,1,0,0,0-1-1H28.37a1,1,0,0,0-1,1v7.2A1,1,0,0,0,28.37,48.69Zm6.19-7.2v5.2H29.37v-5.2Z"/><path class="cls-1" d="M40.36,48.69h7.19a1,1,0,0,0,1-1v-7.2a1,1,0,0,0-1-1H40.36a1,1,0,0,0-1,1v7.2A1,1,0,0,0,40.36,48.69Zm6.19-7.2v5.2H41.36v-5.2Z"/><path class="cls-1" d="M52.35,48.69h7.19a1,1,0,0,0,1-1v-7.2a1,1,0,0,0-1-1H52.35a1,1,0,0,0-1,1v7.2A1,1,0,0,0,52.35,48.69Zm6.19-7.2v5.2H53.35v-5.2Z"/><path class="cls-1" d="M64.34,48.69h7.19a1,1,0,0,0,1-1v-7.2a1,1,0,0,0-1-1H64.34a1,1,0,0,0-1,1v7.2A1,1,0,0,0,64.34,48.69Zm6.19-7.2v5.2H65.34v-5.2Z"/><path class="cls-1" d="M76.43,36a1.49,1.49,0,0,0,0-.18l-.2-.33a.52.52,0,0,0-.13-.12L60.91,27.29l-.13-.06-.15,0-.09,0h0l-.41.06a1.09,1.09,0,0,0-.19.1l-.13.1a.56.56,0,0,0-.12.13l-.09.1-.13,6.86L45.87,27.29l-.12-.06-.15,0-.09,0h0l-.4.06a1.13,1.13,0,0,0-.22.11l-.11.09a.44.44,0,0,0-.13.14l-.08.09-.06.14c0,.07,0,.13,0,.17l0,6.74-2.66-1.42v-19a1,1,0,0,0-1-1H29.5a1,1,0,0,0-1,1v20l-4.11-2.19V7.1a1,1,0,0,0-1-1H8a1,1,0,0,0-1,1V30.78L1.48,27.84a.43.43,0,0,0-.15-.05l-.07,0-.15,0H1l-.07,0a.55.55,0,0,0-.22.05l-.15.07A.91.91,0,0,0,.32,28l-.17.2-.08.18,0,.1a1.3,1.3,0,0,0,0,.13V59.19a1,1,0,0,0,1,1H75.45a1,1,0,0,0,1-1v-23ZM22.39,31l-6.93-3.69-.12-.06-.14,0-.11,0h0l-.39.06a1,1,0,0,0-.23.11l-.11.08a.61.61,0,0,0-.12.14l-.09.09-.06.15c0,.07,0,.13,0,.17l0,6.55L9,31.85V13.47h13.4ZM9,11.47V8.1h13.4v3.37Zm6.44,25.6.13-.08a1,1,0,0,0,.21-.21.52.52,0,0,0,.08-.11l.08-.2s0-.11,0-.18V29.83l13.57,7.24.1,0a1,1,0,0,0,.82,0l.11-.07a1.1,1.1,0,0,0,.22-.21l.17-.34a1,1,0,0,0,0-.15V29.83l13.57,7.24.11,0a.86.86,0,0,0,.23.06h.47a.91.91,0,0,0,.39-.08,1,1,0,0,0,.61-.92V29.83L60,37.07l.1,0a1,1,0,0,0,.82,0L61,37a.88.88,0,0,0,.22-.21l.14-.24,0-.13a.5.5,0,0,0,0-.12V29.83l13,7V58.19H2V30.39l12.52,6.68.11,0A.94.94,0,0,0,15.43,37.07ZM30.5,27.29V19.21h9.23v13Zm9.23-12v2H30.5v-2Z"/><path class="cls-1" d="M34.12,10.41h0a1,1,0,0,0,.43,1.34,1,1,0,0,0,1.35-.43,5.44,5.44,0,0,1,4.78-2.73A4.83,4.83,0,0,1,43.87,9.8a9.58,9.58,0,0,0,6.43,2.06c6.52,0,8-3.77,8-3.94a1,1,0,0,0-.6-1.27,1,1,0,0,0-1.28.59c0,.11-1.09,2.62-6.12,2.62A7.59,7.59,0,0,1,45,8.17a6.81,6.81,0,0,0-4.35-1.58A7.5,7.5,0,0,0,34.12,10.41Z"/><path class="cls-1" d="M14.27,5.16a1,1,0,0,0,1.34-.43A5.46,5.46,0,0,1,20.39,2a4.84,4.84,0,0,1,3.19,1.22,9.69,9.69,0,0,0,6.43,2c6.52,0,8-3.77,8-3.93A1,1,0,0,0,36.14.65c0,.11-1.06,2.62-6.13,2.62a7.68,7.68,0,0,1-5.27-1.68A6.74,6.74,0,0,0,20.39,0a7.52,7.52,0,0,0-6.56,3.82A1,1,0,0,0,14.27,5.16Z"/></g></g></svg>