<svg id="Réteg_1" data-name="Réteg 1" xmlns="http://www.w3.org/2000/svg" xmlns:xlink="http://www.w3.org/1999/xlink" viewBox="0 0 100 100"><defs><style>.cls-1{fill:none;}.cls-2{fill:#c1e8d4;}.cls-3{fill:#231f20;}.cls-4{clip-path:url(#clip-path);}.cls-5{fill:#e6e7e8;}.cls-6{fill:#e5e6e7;}.cls-7{fill:#e4e5e6;}.cls-8{fill:#e3e4e5;}.cls-9{fill:#e2e3e4;}.cls-10{fill:#e1e2e3;}.cls-11{fill:#e0e1e2;}.cls-12{fill:#dfe0e1;}.cls-13{fill:#dedfe0;}.cls-14{fill:#dddee0;}.cls-15{fill:#dddedf;}.cls-16{fill:#dcddde;}.cls-17{fill:#dbdcde;}.cls-18{fill:#dbdcdd;}.cls-19{fill:#dadbdc;}.cls-20{fill:#d9dadb;}.cls-21{fill:#d8d9db;}.cls-22{fill:#d7d8da;}.cls-23{fill:#d6d8d9;}.cls-24{fill:#d5d7d8;}.cls-25{fill:#d5d6d7;}.cls-26{fill:#d4d5d6;}.cls-27{fill:#d3d4d5;}.cls-28{fill:#d2d3d4;}.cls-29{fill:#d0d2d3;}.cls-30{fill:#cfd1d2;}.cls-31{fill:#ced0d1;}.cls-32{fill:#cdced0;}.cls-33{fill:#cccdcf;}.cls-34{fill:#cbccce;}.cls-35{fill:#c9cbcc;}.cls-36{fill:#c8cacb;}.cls-37{fill:#c7c8ca;}.cls-38{fill:#c6c7c9;}.cls-39{fill:#c4c6c7;}.cls-40{fill:#c3c4c6;}.cls-41{fill:#c1c3c5;}.cls-42{fill:#c0c1c3;}.cls-43{fill:#bec0c2;}.cls-44{fill:#bdbec0;}.cls-45{fill:#bbbdbf;}.cls-46{fill:#babbbd;}.cls-47{fill:#b8babc;}.cls-48{fill:#b6b8ba;}.cls-49{fill:#b5b6b9;}.cls-50{fill:#b3b5b7;}.cls-51{fill:#b1b3b5;}.cls-52{fill:#b0b1b3;}.cls-53{fill:#aeafb2;}.cls-54{fill:#acaeb0;}.cls-55{fill:#aaacae;}.cls-56{fill:#a8aaac;}.cls-57{fill:#a6a8aa;}.cls-58{fill:#a4a6a8;}.cls-59{fill:#a2a4a7;}.cls-60{fill:#a0a2a5;}.cls-61{fill:#9ea0a3;}.cls-62{fill:#9c9ea1;}.cls-63{fill:#9a9c9e;}.cls-64{fill:#97999c;}.cls-65{fill:#95979a;}.cls-66{fill:#939598;}</style><clipPath id="clip-path"><polyline class="cls-1" points="0 12.5 17.54 12.5 17.54 87.5 0 87.5"/></clipPath></defs><path class="cls-2" d="M1,12.5H59.76A11.84,11.84,0,0,1,66,34.4a7,7,0,0,1-.77,7.42,11.82,11.82,0,0,1,2.44,14.27,11.81,11.81,0,0,1-1.93,13.77A9.38,9.38,0,0,1,61.32,87.5H1Z"/><path class="cls-3" d="M49,78.42a1,1,0,0,1-.71-1.71,3.39,3.39,0,0,0,0-4.79,1,1,0,0,1,0-1.42,1,1,0,0,1,1.41,0,5.38,5.38,0,0,1,0,7.62A1,1,0,0,1,49,78.42Z"/><path class="cls-3" d="M25.68,77.77a1,1,0,0,1-.48-.59,1,1,0,0,1,.69-1.24,3.4,3.4,0,0,0,2.31-4.2,1,1,0,0,1,.69-1.24,1,1,0,0,1,1.23.69,5.39,5.39,0,0,1-3.68,6.67A1,1,0,0,1,25.68,77.77Z"/><path class="cls-3" d="M48.34,35.71a1,1,0,0,1-.7-1.71,7.23,7.23,0,0,0,0-10.23,1,1,0,1,1,1.41-1.41,9.22,9.22,0,0,1,0,13.06A1,1,0,0,1,48.34,35.71Z"/><path class="cls-3" d="M49.66,55.47a1,1,0,0,1-1-1,5.4,5.4,0,0,1,5.39-5.39,1,1,0,0,1,0,2,3.39,3.39,0,0,0-3.39,3.39A1,1,0,0,1,49.66,55.47Z"/><path class="cls-3" d="M22.1,39.06A1.14,1.14,0,0,1,23,37.72a6.21,6.21,0,0,1,7.27,4.94,1.15,1.15,0,1,1-2.26.43A3.92,3.92,0,0,0,23.45,40,1.15,1.15,0,0,1,22.1,39.06Z"/><path class="cls-3" d="M61.23,88.5a1,1,0,1,1,0-2,8.38,8.38,0,0,0,4-15.76,1,1,0,0,1,1-1.76A10.38,10.38,0,0,1,61.23,88.5Z"/><path class="cls-3" d="M57.13,74.49a1,1,0,0,1,0-2A10.85,10.85,0,0,0,68,61.65a10.88,10.88,0,0,0-1.27-5.09,11.11,11.11,0,0,0-3-3.54,1,1,0,1,1,1.21-1.59,13.17,13.17,0,0,1,3.56,4.19,12.92,12.92,0,0,1,1.5,6A12.85,12.85,0,0,1,57.13,74.49Z"/><path class="cls-3" d="M67.59,57.09a1,1,0,0,1-.46-.12,1,1,0,0,1-.42-1.35A10.73,10.73,0,0,0,68,50.53a10.84,10.84,0,0,0-3.51-8,1,1,0,1,1,1.36-1.47,12.85,12.85,0,0,1,2.65,15.48A1,1,0,0,1,67.59,57.09Z"/><path class="cls-3" d="M65.92,35.4a1,1,0,0,1-.85-.47,1,1,0,0,1,.32-1.38,10.84,10.84,0,0,0-5.72-20,1,1,0,0,1,0-2,12.84,12.84,0,0,1,6.78,23.75A1,1,0,0,1,65.92,35.4Z"/><path class="cls-3" d="M65.15,42.82a1,1,0,0,1-.62-.22,1,1,0,0,1-.17-1.4,6,6,0,0,0,1.29-3.7A5.87,5.87,0,0,0,65,34.85a7.08,7.08,0,0,0-.38-.66,6,6,0,0,0-5-2.67,1,1,0,0,1,0-2,8,8,0,0,1,6.64,3.56,6.76,6.76,0,0,1,.51.88,8,8,0,0,1-.89,8.48A1,1,0,0,1,65.15,42.82Z"/><g class="cls-4"><rect class="cls-5" y="12.5" width="0.21" height="75"/><rect class="cls-5" x="0.21" y="12.5" width="0.21" height="75"/><rect class="cls-5" x="0.42" y="12.5" width="0.21" height="75"/><rect class="cls-5" x="0.63" y="12.5" width="0.21" height="75"/><rect class="cls-5" x="0.85" y="12.5" width="0.21" height="75"/><rect class="cls-5" x="1.06" y="12.5" width="0.21" height="75"/><rect class="cls-5" x="1.27" y="12.5" width="0.21" height="75"/><rect class="cls-5" x="1.48" y="12.5" width="0.21" height="75"/><rect class="cls-5" x="1.69" y="12.5" width="0.21" height="75"/><rect class="cls-6" x="1.9" y="12.5" width="0.21" height="75"/><rect class="cls-6" x="2.11" y="12.5" width="0.21" height="75"/><rect class="cls-6" x="2.32" y="12.5" width="0.21" height="75"/><rect class="cls-6" x="2.54" y="12.5" width="0.21" height="75"/><rect class="cls-6" x="2.75" y="12.5" width="0.21" height="75"/><rect class="cls-7" x="2.96" y="12.5" width="0.21" height="75"/><rect class="cls-7" x="3.17" y="12.5" width="0.21" height="75"/><rect class="cls-7" x="3.38" y="12.5" width="0.21" height="75"/><rect class="cls-7" x="3.59" y="12.5" width="0.21" height="75"/><rect class="cls-8" x="3.8" y="12.5" width="0.21" height="75"/><rect class="cls-8" x="4.01" y="12.5" width="0.21" height="75"/><rect class="cls-8" x="4.23" y="12.5" width="0.21" height="75"/><rect class="cls-9" x="4.44" y="12.5" width="0.21" height="75"/><rect class="cls-9" x="4.65" y="12.5" width="0.21" height="75"/><rect class="cls-10" x="4.86" y="12.5" width="0.21" height="75"/><rect class="cls-10" x="5.07" y="12.5" width="0.21" height="75"/><rect class="cls-11" x="5.28" y="12.5" width="0.21" height="75"/><rect class="cls-11" x="5.49" y="12.5" width="0.21" height="75"/><rect class="cls-12" x="5.7" y="12.5" width="0.21" height="75"/><rect class="cls-12" x="5.92" y="12.5" width="0.21" height="75"/><rect class="cls-13" x="6.13" y="12.5" width="0.21" height="75"/><rect class="cls-14" x="6.34" y="12.5" width="0.21" height="75"/><rect class="cls-15" x="6.55" y="12.5" width="0.21" height="75"/><rect class="cls-16" x="6.76" y="12.5" width="0.21" height="75"/><rect class="cls-17" x="6.97" y="12.5" width="0.21" height="75"/><rect class="cls-18" x="7.18" y="12.5" width="0.21" height="75"/><rect class="cls-19" x="7.4" y="12.5" width="0.21" height="75"/><rect class="cls-20" x="7.61" y="12.5" width="0.21" height="75"/><rect class="cls-21" x="7.82" y="12.5" width="0.21" height="75"/><rect class="cls-22" x="8.03" y="12.5" width="0.21" height="75"/><rect class="cls-23" x="8.24" y="12.5" width="0.21" height="75"/><rect class="cls-24" x="8.45" y="12.5" width="0.21" height="75"/><rect class="cls-25" x="8.66" y="12.5" width="0.21" height="75"/><rect class="cls-26" x="8.87" y="12.5" width="0.21" height="75"/><rect class="cls-27" x="9.09" y="12.5" width="0.21" height="75"/><rect class="cls-28" x="9.3" y="12.5" width="0.21" height="75"/><rect class="cls-29" x="9.51" y="12.5" width="0.21" height="75"/><rect class="cls-30" x="9.72" y="12.5" width="0.21" height="75"/><rect class="cls-31" x="9.93" y="12.5" width="0.21" height="75"/><rect class="cls-32" x="10.14" y="12.5" width="0.21" height="75"/><rect class="cls-33" x="10.35" y="12.5" width="0.21" height="75"/><rect class="cls-34" x="10.56" y="12.5" width="0.21" height="75"/><rect class="cls-35" x="10.78" y="12.5" width="0.21" height="75"/><rect class="cls-36" x="10.99" y="12.5" width="0.21" height="75"/><rect class="cls-37" x="11.2" y="12.5" width="0.21" height="75"/><rect class="cls-38" x="11.41" y="12.5" width="0.21" height="75"/><rect class="cls-39" x="11.62" y="12.5" width="0.21" height="75"/><rect class="cls-40" x="11.83" y="12.5" width="0.21" height="75"/><rect class="cls-41" x="12.04" y="12.5" width="0.21" height="75"/><rect class="cls-42" x="12.25" y="12.5" width="0.21" height="75"/><rect class="cls-43" x="12.47" y="12.5" width="0.21" height="75"/><rect class="cls-44" x="12.68" y="12.5" width="0.21" height="75"/><rect class="cls-45" x="12.89" y="12.5" width="0.21" height="75"/><rect class="cls-46" x="13.1" y="12.5" width="0.21" height="75"/><rect class="cls-47" x="13.31" y="12.5" width="0.21" height="75"/><rect class="cls-48" x="13.52" y="12.5" width="0.21" height="75"/><rect class="cls-49" x="13.73" y="12.5" width="0.21" height="75"/><rect class="cls-50" x="13.94" y="12.5" width="0.21" height="75"/><rect class="cls-51" x="14.16" y="12.5" width="0.21" height="75"/><rect class="cls-52" x="14.37" y="12.5" width="0.21" height="75"/><rect class="cls-53" x="14.58" y="12.5" width="0.21" height="75"/><rect class="cls-54" x="14.79" y="12.5" width="0.21" height="75"/><rect class="cls-55" x="15" y="12.5" width="0.21" height="75"/><rect class="cls-56" x="15.21" y="12.5" width="0.21" height="75"/><rect class="cls-57" x="15.42" y="12.5" width="0.21" height="75"/><rect class="cls-58" x="15.63" y="12.5" width="0.21" height="75"/><rect class="cls-59" x="15.85" y="12.5" width="0.21" height="75"/><rect class="cls-60" x="16.06" y="12.5" width="0.21" height="75"/><rect class="cls-61" x="16.27" y="12.5" width="0.21" height="75"/><rect class="cls-62" x="16.48" y="12.5" width="0.21" height="75"/><rect class="cls-63" x="16.69" y="12.5" width="0.21" height="75"/><rect class="cls-64" x="16.9" y="12.5" width="0.21" height="75"/><rect class="cls-65" x="17.11" y="12.5" width="0.21" height="75"/><rect class="cls-66" x="17.33" y="12.5" width="0.21" height="75"/></g><polygon class="cls-3" points="18.54 88.5 0 88.5 0 86.5 16.54 86.5 16.54 13.5 0 13.5 0 11.5 18.54 11.5 18.54 88.5"/><path class="cls-3" d="M5.6,83.83a1.75,1.75,0,1,1,1.75-1.75A1.76,1.76,0,0,1,5.6,83.83Zm0-2a.25.25,0,0,0-.25.25c0,.27.5.27.5,0A.25.25,0,0,0,5.6,81.83Z"/><path class="cls-3" d="M11.05,78.94a1.76,1.76,0,1,1,1.76-1.75A1.76,1.76,0,0,1,11.05,78.94Zm0-2a.25.25,0,0,0-.24.25c0,.27.49.27.49,0A.25.25,0,0,0,11.05,76.94Z"/><path class="cls-3" d="M11.05,70.27a3.56,3.56,0,1,1,3.56-3.56A3.56,3.56,0,0,1,11.05,70.27Zm0-5.12a1.56,1.56,0,1,0,1.56,1.56A1.56,1.56,0,0,0,11.05,65.15Z"/><path class="cls-3" d="M5.6,55.36a2.57,2.57,0,1,1,2.56-2.57A2.57,2.57,0,0,1,5.6,55.36Zm0-3.13a.57.57,0,1,0,.56.56A.56.56,0,0,0,5.6,52.23Z"/><path class="cls-3" d="M13.61,37a2.77,2.77,0,1,1,2.77-2.76A2.77,2.77,0,0,1,13.61,37Zm0-3.53a.77.77,0,1,0,.77.77A.77.77,0,0,0,13.61,33.51Z"/><path class="cls-3" d="M4,39.85A1.83,1.83,0,1,1,5.85,38,1.84,1.84,0,0,1,4,39.85Zm0-2a.17.17,0,0,0-.17.17c0,.18.33.18.33,0A.17.17,0,0,0,4,37.85Z"/><path class="cls-3" d="M16.7,22.9a1.83,1.83,0,1,1,1.84-1.83A1.83,1.83,0,0,1,16.7,22.9Zm0-2a.17.17,0,0,0-.16.17c0,.19.33.19.33,0A.17.17,0,0,0,16.7,20.9Z"/><path class="cls-3" d="M16.06,52.06a1.84,1.84,0,1,1,1.83-1.84A1.84,1.84,0,0,1,16.06,52.06Zm0-2a.17.17,0,0,0-.17.16c0,.19.34.19.34,0A.17.17,0,0,0,16.06,50.06Z"/><path class="cls-3" d="M6.3,28.71a2.94,2.94,0,1,1,2.94-2.93A2.93,2.93,0,0,1,6.3,28.71Zm0-3.87a.94.94,0,1,0,.94.94A.94.94,0,0,0,6.3,24.84Z"/><path class="cls-3" d="M16.06,86.65a2.48,2.48,0,1,1,2.48-2.48A2.49,2.49,0,0,1,16.06,86.65Zm0-3a.47.47,0,0,0-.48.48.48.48,0,0,0,.48.48.49.49,0,0,0,.48-.48A.48.48,0,0,0,16.06,83.69Z"/></svg>